<svg width="82" height="57" viewBox="0 0 82 57" fill="none" xmlns="http://www.w3.org/2000/svg">
<g clip-path="url(#clip0_27_2905)">
<path d="M72.9056 40.9086C73.6014 40.8779 75.4384 42.8127 75.6802 44.9607L73.7513 44.5804C74.7454 42.5244 72.6879 40.9197 72.9056 40.9086Z" fill="#DB1F26"/>
<path d="M49.8637 45.9009C48.8738 44.1889 47.6788 42.7068 48.2261 41.8028C48.6009 41.1843 49.7562 40.8653 51.999 40.8751C51.999 40.8751 49.5314 39.4543 48.0182 39.2523C47.1443 39.1274 46.2553 39.1472 45.3879 39.3108C45.3879 39.3108 47.717 40.407 47.3762 41.4225C47.2094 41.924 45.6538 41.2052 44.6894 41.0046C43.8154 40.8221 46.9364 44.4188 46.9364 44.4188L49.8637 45.9009Z" fill="#BF2026"/>
<path d="M67.7977 38.7564C57.278 43.8309 42.3645 40.01 35.8199 35.983C35.8199 35.983 39.655 33.0758 34.946 27.5026C34.946 27.5026 49.5017 15.2752 38.8617 4.45605C58.6101 11.1924 68.5543 20.6534 67.7977 38.7564Z" fill="#BF2026"/>
<path d="M80.4558 49.8863C80.8288 50.2779 81.0357 50.7952 81.0342 51.3321C81.0342 51.4714 80.6099 51.1218 80.6099 51.1218C80.6099 51.1218 78.5241 51.7695 77.7718 51.7305C77.0194 51.6915 76.13 50.8753 75.6859 50.5897C75.2419 50.3041 72.0191 49.2538 71.0518 49.3722C70.7435 49.4113 70.9938 46.805 70.9938 46.805C70.9938 46.805 72.1138 46.0069 72.6356 45.9692C72.6936 45.9637 80.4558 49.8863 80.4558 49.8863Z" fill="#BF2026"/>
<path d="M80.5633 50.8655C80.6355 51.3503 80.5195 51.6066 80.4757 51.6498C80.4318 51.6929 79.5918 50.8377 79.5494 50.6663C79.507 50.495 80.5633 50.8655 80.5633 50.8655Z" fill="#BF2026"/>
<path d="M48.8867 44.7128C47.4725 42.8211 45.9085 41.2304 46.2324 40.0826C46.453 39.2969 47.5305 38.7578 49.7776 38.4556C49.7776 38.4556 46.9493 37.1155 45.3938 37.0863C43.8382 37.057 42.5994 38.8261 42.5994 38.8261C42.5994 38.8261 44.756 38.9974 44.872 39.6257C44.9879 40.2539 43.5101 39.7329 42.5019 39.6257C41.5813 39.5295 45.596 43.3602 45.596 43.3602L48.8867 44.7128Z" fill="#EA382F"/>
<path d="M65.3755 30.9237C57.2668 39.939 41.5106 39.9961 33.6918 37.3147C33.6918 37.3147 36.2372 32.807 29.5781 27.7854C29.5781 27.7854 38.7883 9.29941 24.4236 0C45.9326 1.85403 59.1066 9.79391 65.3755 30.9237Z" fill="#EA382F"/>
<path d="M60.4004 56.9985H56.3305C56.3305 56.9985 54.3832 54.9983 52.8928 54.175L52.4685 53.5078C52.4685 53.5078 54.8923 53.9103 54.2136 51.2526C53.3948 48.0488 56.9259 47.174 59.7386 49.2523C59.7386 49.2523 58.4065 52.2095 57.3063 53.1526C56.9499 53.459 56.0335 54.8701 58.3358 56.1447C58.3358 56.1474 60.1953 56.1363 60.4004 56.9985Z" fill="#BF2026"/>
<path d="M34.9716 56.9986H29.694C29.694 56.9986 29.5696 54.313 25.5648 52.0661C24.2652 50.6467 26.9421 50.9894 28.6674 50.2762C28.5613 46.0137 34.0609 45.873 37.6584 48.6408C37.6584 48.6408 35.9502 52.4018 30.8819 53.2613C30.7264 53.6332 31.4985 54.9329 32.5916 56.2046C32.5916 56.2005 34.7694 56.2395 34.9716 56.9986Z" fill="#BF2026"/>
<path d="M72.5579 48.4973C69.6037 45.7016 67.9817 45.4161 65.3755 46.8425C62.7692 48.2689 57.2668 53.5189 51.64 53.2334C46.0132 52.9478 41.8174 50.095 37.1013 50.8946C32.4346 51.6844 24.7644 53.4618 19.03 50.4377C13.2957 47.4136 9.88484 40.7385 12.839 33.7737C15.7931 26.8089 22.5088 21.0532 18.6907 14.9478C15.5923 10.0014 5.31011 9.4707 2.76043 15.4618C0.210747 21.453 5.13618 26.4161 5.13618 26.4161L4.96223 26.7016C-2.39126 20.9905 -1.23592 10.6115 6.23496 8.15852C13.7058 5.70552 24.8181 9.2924 24.6555 18.6057C24.4815 28.5334 15.6771 36.8062 18.6313 41.4851C21.2955 45.7044 26.4981 44.7656 29.868 42.8544C33.8276 40.6104 39.4841 38.6324 43.5964 39.8874C47.7087 41.1425 50.141 51.0144 59.4092 45.7072C68.6775 40.4 72.8435 44.3379 73.89 45.3645C74.9364 46.3912 72.5579 48.4973 72.5579 48.4973Z" fill="#ED302B"/>
<path d="M6.23494 8.15852C13.7072 5.70552 24.8181 9.2924 24.6555 18.6057C24.589 22.3542 23.2922 25.8673 21.864 29.0404C19.6169 31.8918 16.3842 33.764 12.7513 34.0008C12.781 33.9283 12.8078 33.8615 12.839 33.7821C15.7931 26.8172 22.5116 21.0587 18.6892 14.9534C15.5909 10.007 5.30869 9.47627 2.75901 15.4674C0.209324 21.4585 5.13475 26.4216 5.13475 26.4216L4.96081 26.7072C-2.39552 20.9961 -1.23734 10.6115 6.23494 8.15852Z" fill="#EF3E37"/>
<path d="M18.7119 23.2041C17.6414 26.426 15.0182 29.7106 13.0554 33.2864C14.6845 29.6828 17.2483 26.3912 18.7119 23.2041Z" fill="#EF3E37"/>
<path d="M24.1633 20.2622C23.9852 6.76717 6.97737 6.03865 1.18366 12.3418C2.25438 10.357 4.06525 8.85885 6.23494 8.16292C13.7072 5.70991 24.8181 9.29679 24.6555 18.6101C24.6145 20.9517 24.0898 23.2069 23.3587 25.334C23.8254 23.693 24.186 21.9992 24.1633 20.2622Z" fill="#EF3E37"/>
<path d="M0.892362 21.4643C0.749172 19.9796 0.99252 18.4833 1.59943 17.1169C1.90407 16.4251 2.33118 15.7921 2.86083 15.2476C2.82831 15.3172 2.79013 15.3869 2.75902 15.4579C0.213579 21.4476 5.13477 26.4122 5.13477 26.4122L4.96082 26.6977C3.167 25.3302 1.76498 23.5267 0.892362 21.4643Z" fill="#EF3E37"/>
<path d="M60.4683 46.0442C57.3176 47.7938 55.1172 49.9111 51.316 49.1254C45.8009 47.9832 45.6213 42.8153 42.7817 41.974C38.5393 40.7203 33.6125 42.2526 29.5341 44.5036C26.0624 46.4147 21.2756 47.2965 18.5307 43.0772C17.3527 41.2663 17.4164 38.9749 18.6495 36.1987C17.9269 38.2617 17.7218 40.0405 18.6311 41.4795C21.2953 45.6987 26.4654 44.5885 29.8353 42.6774C33.7949 40.4333 39.4217 38.5124 43.534 39.7675C47.6463 41.0226 50.0221 50.8374 59.2903 45.5302C68.5586 40.223 72.8519 44.3322 73.8898 45.3588C74.1727 45.6374 74.201 45.9773 74.1076 46.3339C69.1369 42.9671 68.468 41.5937 60.4683 46.0442Z" fill="#EF3E37"/>
<path d="M24.3654 16.3171C24.3654 16.1847 24.3654 16.0538 24.3654 15.9229C24.5772 16.7995 24.6746 17.6992 24.6553 18.6001C24.5139 26.7866 18.501 33.8475 18.0527 38.6964C17.3244 30.6102 24.1943 26.0539 24.3654 16.3171Z" fill="#DB1F26"/>
<path d="M2.75892 15.4619C0.213478 21.4516 5.13467 26.4162 5.13467 26.4162L5.01022 26.6209C3.55932 25.0371 -0.584099 19.7049 2.75609 13.4644C5.829 7.71704 15.8467 8.70883 18.9451 13.6566C22.7633 19.762 17.4687 25.0469 14.5146 32.0075C11.5605 38.9681 14.3025 43.9717 20.0297 46.9944C25.757 50.0171 31.2014 45.88 35.868 45.093C40.5842 44.2948 45.7373 50.6648 51.3571 50.9518C56.9768 51.2387 62.4778 45.9873 65.0841 44.5609C66.4812 43.7961 67.5404 43.5468 69.3265 44.3895C69.7238 44.1695 70.6388 43.5148 72.2226 44.0566C72.8081 44.4508 73.0711 46.8258 73.624 47.2953C73.3097 47.7309 72.951 48.1337 72.5535 48.4974C69.5994 45.7017 67.9774 45.4162 65.3711 46.8426C62.7649 48.2689 57.2667 53.519 51.6399 53.2335C46.013 52.9479 41.6462 50.3807 36.9329 51.1858C32.2662 51.977 25.0867 54.125 19.3524 51.1008C13.6181 48.0767 9.88474 40.7386 12.8389 33.7738C15.793 26.809 22.5087 21.0533 18.6906 14.9479C15.5908 10.0015 5.3086 9.47078 2.75892 15.4619Z" fill="#DB1F26"/>
<path d="M19.303 50.0716C25.0373 53.0957 32.2649 50.7486 36.9316 49.9574C41.6463 49.1634 46.0287 51.7306 51.64 52.0217C57.2513 52.3129 62.0636 47.7997 64.6698 46.3733C67.2761 44.9469 69.3167 44.9176 72.2651 47.7175L72.5579 48.4975C69.6037 45.7019 68.0171 45.511 65.4108 46.9388C62.8046 48.3666 57.2244 53.6334 51.606 53.3464C45.9877 53.0595 41.676 50.6998 36.9599 51.4924C32.2932 52.2822 25.0373 54.316 19.303 51.2918C14.7777 48.9085 11.4998 43.6584 11.7628 38.2119C11.999 43.1862 15.12 47.8707 19.303 50.0716Z" fill="#F3BC5B"/>
<path d="M39.2478 50.5518C43.6415 50.5518 47.2702 52.0631 49.7124 53.1719C44.9906 52.5562 41.1357 50.7858 36.9654 51.5004C35.0761 51.8194 32.7626 52.3361 30.2977 52.6523C32.3596 51.4823 35.407 50.5518 39.2478 50.5518Z" fill="#FFD278"/>
<path d="M48.1556 56.9988H44.3813C44.3813 56.9988 43.8468 54.7784 42.8625 53.9343L42.9035 53.2489C42.9035 53.2489 45.0983 53.8242 46.3088 51.0885C47.7682 47.7927 52.053 48.7204 53.5308 50.8656C53.5308 50.8656 52.6611 52.6764 47.6423 53.2489C47.1092 53.3088 45.0643 54.8146 46.5817 56.1268C46.5817 56.1226 48.5657 56.1115 48.1556 56.9988Z" fill="#EA382F"/>
<path d="M24.9127 56.9986H20.1046C20.1046 56.9986 21.9303 53.9758 19.5545 51.4462C19.2844 49.8485 21.7139 50.233 23.9568 49.4292C26.9434 44.6319 30.4618 43.9967 34.9785 45.2072C34.9785 45.2072 34.5147 53.1568 24.1349 52.2973C23.7107 52.7152 22.9343 54.6793 23.1069 56.1057C23.1097 56.1057 25.2634 56.1433 24.9127 56.9986Z" fill="#ED302B"/>
<path d="M81.2914 49.9865C81.5134 50.4211 80.4599 50.9755 78.0247 50.7303L77.5043 49.7399C76.6497 49.9873 75.7337 49.9281 74.9193 49.5728C74.9193 49.5728 76.4593 49.0894 75.3563 48.5127C74.2533 47.936 71.9892 48.7913 71.9892 48.7913C71.9892 48.7913 72.2169 47.2855 69.9741 47.0445C69.3151 44.9551 69.7309 44.2335 71.8591 43.9619C71.8591 43.9619 74.8811 44.3687 76.0025 44.9635C77.1239 45.5582 78.2652 47.0445 78.2652 47.0445L77.9526 47.5014C78.2553 48.17 81.0439 49.5031 81.2914 49.9865Z" fill="#ED302B"/>
<path d="M73.7401 44.5776C73.2352 44.3158 72.21 44.0051 71.708 43.8018C72.6342 43.9494 75.2108 44.3172 76.0593 44.7768C77.1906 45.3856 78.2158 46.9638 78.2158 46.9638L78.1423 47.0724C75.1712 46.33 75.3974 45.4357 73.7401 44.5776Z" fill="#EF3E37"/>
<path d="M69.5995 44.8672C71.2314 44.895 72.613 45.7545 72.613 47.0514C72.5803 47.6749 72.3249 48.267 71.8918 48.7229L71.8409 48.7424C71.8409 48.7424 71.9555 47.3912 69.6773 47.1447C69.3832 46.2058 69.4157 45.3464 69.5995 44.8672Z" fill="#DB1F26"/>
<path d="M74.5235 46.6531C74.5235 46.1126 74.5235 45.3089 74.1191 44.7935C74.6607 45.1124 74.8615 44.7935 75.4555 45.6529C76.0211 46.4622 77.4451 46.7422 78.2031 46.9762L77.8977 47.4248C77.9566 47.534 78.0346 47.6321 78.1282 47.7145C77.4993 47.5783 76.8573 47.5091 76.2134 47.5083C75.5246 47.5064 74.8374 47.575 74.1629 47.7131C74.3932 47.4058 74.5194 47.035 74.5235 46.6531Z" fill="#DB1F26"/>
<path d="M78.2412 47.5753L78.121 47.7286C78.121 47.7286 75.6335 47.7745 76.1554 46.2534C76.1554 46.2534 77.7632 46.9262 78.2412 47.5753Z" fill="#482D35"/>
<path d="M82 50.038C82 50.2386 81.2095 50.3737 80.8687 50.3514C80.5279 50.3291 79.6398 48.7773 79.6398 48.7773C79.6398 48.7773 80.1249 48.925 80.2974 48.9542C80.6297 49.0114 82 49.8666 82 50.038Z" fill="#482D35"/>
<path d="M71.206 40.4405C71.8975 40.46 73.8419 42.4519 74.2195 44.4996L72.2736 43.9758C73.1348 42.1204 70.991 40.4321 71.206 40.4405Z" fill="#EF3E37"/>
<path d="M77.448 47.2857C77.3599 47.2853 77.272 47.2783 77.185 47.2648C76.8696 47.2119 76.9021 47.1673 76.7084 46.8804C76.9925 46.9343 77.2517 47.0763 77.448 47.2857Z" fill="#78CBC0"/>
<path d="M78.6995 47.2143L78.3629 47.7715C77.9608 47.2815 77.4214 46.9186 76.8116 46.7282C75.9164 46.4412 75.5601 46.022 75.3706 45.2837C75.5074 45.5829 75.723 45.8406 75.995 46.0299C76.2671 46.2193 76.5857 46.3334 76.9177 46.3604C77.9118 46.4329 78.6995 47.2143 78.6995 47.2143Z" fill="#DB1F26"/>
<path d="M42.9035 53.2447C42.9035 53.2447 45.0982 53.82 46.3087 51.0843C46.5005 50.6366 46.7791 50.2302 47.1289 49.8877C46.3851 50.7931 46.1065 51.7264 46.4996 52.3546C47.1318 53.3687 50.7095 52.6332 52.7063 51.4269C52.9939 51.2563 53.2627 51.0565 53.5081 50.8307C53.5081 50.8419 53.5236 50.8516 53.5307 50.8614C53.5378 50.8711 52.8109 52.7628 47.7922 53.3339C47.2619 53.3938 45.0968 54.7909 46.552 56.0947C45.3301 56.1491 44.3883 56.475 44.3883 56.8706C44.3902 56.9156 44.4028 56.9595 44.4251 56.9988H44.3813C44.3813 56.9988 43.8467 54.7784 42.8625 53.9342L42.9035 53.2447Z" fill="#DB1F26"/>
<path d="M46.1079 54.8186C45.9241 53.4897 44.8083 53.3337 43.2443 53.2863C43.9089 53.3239 45.391 53.147 46.3087 51.0799C46.5005 50.6322 46.7791 50.2258 47.1289 49.8833C46.3851 50.7887 46.1065 51.722 46.4996 52.3502C47.1318 53.3643 50.7095 52.6288 52.7063 51.4225C52.9939 51.2519 53.2627 51.0521 53.5081 50.8263C53.5081 50.8375 53.5236 50.8472 53.5307 50.857C53.5378 50.8667 52.8109 52.7584 47.7922 53.3295C47.4386 53.3727 46.3554 54.0106 46.1079 54.8186Z" fill="#CC2027"/>
<path d="M23.9598 49.4292C24.1507 49.1241 24.343 48.8344 24.5382 48.5628C24.2516 49.076 23.9989 49.6069 23.7816 50.1521C23.1608 51.9853 27.3452 52.5996 30.3941 51.0353C31.7269 50.3361 32.9291 49.4185 33.9492 48.3218C32.7161 50.4419 30.0193 52.7793 24.1365 52.2973C23.7123 52.7152 22.9359 54.6793 23.1085 56.1056C23.1085 56.1056 25.2622 56.1433 24.9129 56.9985H20.1048C20.1048 56.9985 21.9305 53.9744 19.5547 51.4462C19.2875 49.8485 21.717 50.2329 23.9598 49.4292Z" fill="#DB1F26"/>
<path d="M24.138 52.3001C24.0327 52.4153 23.9433 52.5436 23.8721 52.6817C22.762 51.4545 21.4553 50.6313 20.2279 50.3263C21.0679 49.9724 22.5499 49.9376 23.9598 49.432C24.1507 49.1269 24.343 48.8372 24.5382 48.5655C24.2517 49.0779 23.999 49.6079 23.7816 50.1521C23.1608 51.9853 27.3452 52.5996 30.3941 51.0353C31.7269 50.3361 32.9291 49.4185 33.9492 48.3218C32.7175 50.4419 30.0208 52.7848 24.138 52.3001Z" fill="#CC2027"/>
<path d="M29.5654 27.8367L29.6191 27.7225C31.8729 27.3965 34.1461 27.2178 36.4239 27.1876C43.3631 27.0483 64.6882 27.3994 63.4537 29.961C59.5973 37.9594 44.7249 37.4343 36.455 37.4579C35.55 37.4579 34.6647 37.4343 33.8035 37.3841L33.7074 37.3521C33.7074 37.3521 36.2415 32.8375 29.5654 27.8367Z" fill="#DB1F26"/>
<path d="M25.5873 0.813477C45.8094 3.25673 57.9399 10.8762 62.8809 28.2994C62.8809 28.2994 50.2229 25.494 29.8113 27.2811C31.1095 24.3587 36.998 9.3788 25.5873 0.813477Z" fill="#DB1F26"/>
<path d="M79.8986 48.8553C79.9651 48.886 80.0259 48.9138 80.0683 48.9292C80.3511 49.035 81.2392 49.8499 81.5715 50.2762C81.3404 50.3326 81.1025 50.3579 80.8645 50.3514C80.5251 50.3291 79.6285 48.7773 79.6285 48.7773C79.6285 48.7773 79.7558 48.8177 79.8986 48.8553Z" fill="#331D26"/>
<path d="M80.1419 49.2454C80.1727 49.2611 80.2043 49.275 80.2367 49.2872C80.3894 49.3443 80.8815 49.7942 81.064 50.0282C80.9378 50.0595 80.8079 50.0735 80.6779 50.07C80.4912 50.0575 79.9963 49.2036 79.9963 49.2036L80.1419 49.2454Z" fill="#201218"/>
<path d="M8.62622 29.7257C6.61236 28.9843 4.77741 27.8376 3.23836 26.3589L3.20301 25.0802L3.76018 25.2947L3.77856 24.647L5.24644 24.9144L8.62622 29.7257Z" fill="#BF2026"/>
<path d="M28.1554 44.4172C30.0489 42.9407 33.983 40.6256 34.9913 41.8792C35.9996 43.1329 35.2077 47.4817 33.3156 48.9569C31.4234 50.432 27.3677 50.7468 26.3594 49.4932C25.3512 48.2395 26.2619 45.8923 28.1554 44.4172Z" fill="#EF3E37"/>
<path d="M47.358 51.7777C46.5661 51.2205 47.416 48.6616 49.038 47.4414C50.66 46.2212 53.8023 47.0012 54.5928 47.564C55.3833 48.1268 55.0608 49.7342 53.4388 50.9531C51.8168 52.1719 48.15 52.3419 47.358 51.7777Z" fill="#EF3E37"/>
<path d="M42.8624 53.93L43.1721 53.2851C43.1721 53.2851 41.9418 53.033 41.3917 53.019C41.3917 53.019 42.3646 53.6292 42.8624 53.93Z" fill="#F3BC5B"/>
<path d="M47.9264 56.4287C48.3507 56.5137 48.5161 56.9984 48.5161 56.9984H47.6804L47.9264 56.4287Z" fill="#F3BC5B"/>
<path d="M47.1064 56.4287C47.5306 56.5137 47.696 56.9984 47.696 56.9984H46.8659L47.1064 56.4287Z" fill="#F3BC5B"/>
<path d="M46.3058 56.4287C46.73 56.5137 46.894 56.9984 46.894 56.9984H46.0639L46.3058 56.4287Z" fill="#F3BC5B"/>
<path d="M24.3388 56.4287C24.763 56.5137 24.9285 56.9984 24.9285 56.9984H24.0984L24.3388 56.4287Z" fill="#F3BC5B"/>
<path d="M23.5184 56.4287C23.9427 56.5137 24.1067 56.9984 24.1067 56.9984H23.2766L23.5184 56.4287Z" fill="#F3BC5B"/>
<path d="M22.7167 56.4287C23.1409 56.5137 23.3064 56.9984 23.3064 56.9984H22.4763L22.7167 56.4287Z" fill="#F3BC5B"/>
<path d="M34.0382 56.5015C34.4893 56.5753 34.7961 56.9988 34.7961 56.9988H33.9632L34.0382 56.5015Z" fill="#DB1F26"/>
<path d="M33.2181 56.5015C33.6678 56.5753 33.9761 56.9988 33.9761 56.9988H33.146L33.2181 56.5015Z" fill="#DB1F26"/>
<path d="M32.4161 56.5015C32.8672 56.5753 33.1741 56.9988 33.1741 56.9988H32.344L32.4161 56.5015Z" fill="#DB1F26"/>
<path d="M59.8008 56.4858C60.2519 56.5625 60.5645 56.9984 60.5645 56.9984H59.7344L59.8008 56.4858Z" fill="#EA382F"/>
<path d="M58.9807 56.4858C59.4318 56.5625 59.7429 56.9984 59.7429 56.9984H58.9128L58.9807 56.4858Z" fill="#EA382F"/>
<path d="M58.1804 56.4858C58.6301 56.5625 58.9426 56.9984 58.9426 56.9984H58.1125L58.1804 56.4858Z" fill="#EA382F"/>
<path d="M43.2443 10.7897C39.3865 9.1584 35.2864 8.15223 31.1025 7.81019C30.0518 5.28197 28.3153 2.86797 25.5874 0.820312C44.8705 3.14238 56.7889 10.1754 62.1414 25.9215C58.2539 20.1323 51.5127 14.2387 43.2443 10.7897Z" fill="#CC2027"/>
<path d="M46.0895 29.5421C41.2927 30.1647 36.9273 31.1356 33.4839 32.2598C32.8376 30.9142 31.6455 29.4 29.5653 27.8371L29.6191 27.7229C31.8729 27.3968 34.1461 27.2181 36.4239 27.188C42.8992 27.0584 61.8995 27.3551 63.407 29.4766C59.4276 28.6715 53.105 28.6311 46.0895 29.5421Z" fill="#CC2027"/>
</g>
<defs>
<clipPath id="clip0_27_2905">
<rect width="82" height="57" fill="white" transform="matrix(-1 0 0 1 82 0)"/>
</clipPath>
</defs>
</svg>
