<svg width="122" height="161" viewBox="0 0 122 161" fill="none" xmlns="http://www.w3.org/2000/svg">
<path d="M103 28H84V161H103V28Z" fill="url(#paint0_linear_61_2)"/>
<path d="M45 124L14.6891 41.5L75.3109 41.5L45 124Z" fill="#511515"/>
<path d="M76 157L53.4833 64.75H98.5167L76 157Z" fill="#511515"/>
<path d="M65 127L30.359 25.75L99.641 25.75L65 127Z" fill="#723232"/>
<path d="M92 106L66.0192 26.5L117.981 26.5L92 106Z" fill="#723232"/>
<path d="M25 90L3.34937 26.25L46.6506 26.25L25 90Z" fill="#723232"/>
<path d="M38 26H19V161H38V26Z" fill="url(#paint1_linear_61_2)"/>
<defs>
<linearGradient id="paint0_linear_61_2" x1="93.5" y1="153.404" x2="93.5" y2="35.8618" gradientUnits="userSpaceOnUse">
<stop stop-color="#FE8738" stop-opacity="0"/>
<stop offset="1" stop-color="#FE8738"/>
</linearGradient>
<linearGradient id="paint1_linear_61_2" x1="28.5" y1="153.29" x2="28.5" y2="33.98" gradientUnits="userSpaceOnUse">
<stop stop-color="#FE8738" stop-opacity="0"/>
<stop offset="1" stop-color="#FE8738"/>
</linearGradient>
</defs>
</svg>
