<svg width="83" height="28" viewBox="0 0 83 28" fill="none" xmlns="http://www.w3.org/2000/svg">
<g clip-path="url(#clip0_30_199)">
<path d="M34.3501 7.74747C34.4502 7.58644 34.5381 7.41837 34.6132 7.24463C34.5083 7.40294 34.4201 7.57143 34.3501 7.74747Z" fill="#F26742"/>
<path d="M82.8291 21.998C82.5999 21.2571 80.5439 18.9435 80.9752 18.4687C79.9824 19.5011 78.6615 18.9167 77.4626 19.1508C76.1851 19.3995 75.6995 21.023 74.5088 21.352C74.8212 20.6546 74.846 19.8646 74.5779 19.1494C74.2511 18.3377 73.6462 18.0448 73.6815 17.1046C73.0929 17.6128 72.507 18.1157 71.932 18.6479C72.1476 16.7422 71.951 14.9823 70.8986 13.2985C70.1147 12.0495 68.9239 11.0705 69.5206 9.52188C68.3719 10.3243 66.9995 10.6894 65.7626 11.4049C64.4254 12.1792 63.9168 14.2989 62.33 14.5543C62.425 14.2521 62.3788 13.9244 62.4914 13.6489C60.7026 15.4263 60.0204 17.6155 57.3582 18.4968C56.3383 18.8338 55.4839 19.0692 54.6824 19.6483C54.2601 18.8176 53.6937 18.0663 53.0088 17.4283C52.3999 16.8612 50.7371 16.0909 51.639 15.112C50.9257 15.3888 50.5541 16.1377 50.0116 16.6339C49.2982 17.2838 48.6309 17.233 47.9027 17.8054C46.9045 18.5904 46.8001 18.4366 46.6061 17.2504C46.5505 16.904 46.5668 16.4012 46.4705 16.0655C46.381 15.7659 46.0501 15.3407 45.9918 15.1855C45.391 16.88 43.6713 17.2357 42.2269 17.7265C40.7039 18.2427 40.3513 20.2073 38.8717 20.5603C38.751 19.8074 39.4006 19.4463 39.5606 18.8151C39.6962 18.2882 39.5823 17.3306 39.5037 16.7783C39.368 15.8328 38.298 13.8576 39.151 13.0565C38.2193 13.8241 37.8762 15.1227 36.9364 15.8502C36.0711 16.5189 35.1407 16.6954 34.4491 17.6208C34.6905 16.8024 35.3537 16.016 35.5774 15.2029C35.7822 14.466 35.4934 13.1461 35.3157 12.4346C34.9305 10.8953 33.7343 9.31726 34.3568 7.75391C33.6353 8.90937 32.4676 9.36674 31.3284 10.1611C30.5364 10.7161 30.0156 11.1481 29.6684 12.0428C29.4189 12.6847 29.2901 13.2464 28.7001 13.6931C28.6703 13.1394 28.022 12.5122 28.2932 11.9866C27.4592 13.356 26.5451 14.2908 25.0207 14.9649C23.636 15.5774 21.7658 16.1578 21.0565 17.5714C20.3784 18.9221 20.4788 21.9592 18.2085 21.6677C18.2709 21.2023 18.2882 20.7321 18.26 20.2634C17.3635 21.2718 15.3428 21.4149 14.9902 22.8405C15.0458 21.5566 15.3726 20.7088 14.6918 19.4503C14.1385 18.4259 13.6068 17.8107 13.5526 16.6419C13.1457 18.684 10.3601 18.8967 8.76382 19.5212C7.80227 19.8983 7.22181 20.4681 6.6834 21.3574C6.28467 22.0167 6.31858 22.8766 5.47095 23.0879C5.62284 22.335 5.40721 21.7599 5.15224 21.0485C5.5591 22.2708 2.31234 23.7833 1.43487 24.4386C0.164101 25.3815 0 26.7094 0 27.9973H80.1059C83.3106 26.8913 83.1709 23.0959 82.8291 21.998Z" fill="#F26742"/>
<path d="M36.9302 10.6183L36.8984 10.5889C36.8998 10.6143 36.9095 10.6263 36.9302 10.6183Z" fill="#F26742"/>
<path d="M38.9313 4.79688C38.8337 6.8818 35.2248 7.76043 36.6082 10.3027L36.8984 10.5889C36.9316 10.4075 37.0038 10.2351 37.11 10.0834C37.2608 9.86871 37.4349 9.67094 37.6294 9.49363C37.9698 9.15796 38.435 8.90921 38.7143 8.50801C39.444 7.43813 38.9313 6.00049 38.9313 4.79688Z" fill="#F26742"/>
<path d="M42.056 12.0413C42.0777 11.497 42.3123 10.712 42.2336 10.3027C42.0193 12.1175 39.0343 13.0055 39.9728 15.0356L40.0528 16.932C40.1586 15.7685 41.4511 15.1212 41.9176 14.0125C42.178 13.4107 42.0288 12.6952 42.056 12.0413Z" fill="#F26742"/>
<path d="M29.4786 5.94727C29.3064 6.3819 28.8344 7.04121 28.4953 7.53469C28.1563 8.02817 27.9664 8.94426 27.4904 9.27324C27.5121 9.05526 27.4348 8.79314 27.4606 8.57649C27.2178 8.89344 27.2002 9.2893 26.857 9.61427C26.5139 9.93925 25.9457 10.1051 25.5537 10.3672C24.8254 10.854 23.8544 11.7366 24.3413 12.6808C24.9665 11.6109 27.1893 11.076 28.0329 10.5223C29.7363 9.40832 29.5274 7.71122 29.4786 5.94727Z" fill="#F26742"/>
<path d="M74.1019 4.95898C73.5878 6.0088 73.402 6.70689 72.412 7.55745C71.7339 8.14187 70.1621 9.52602 70.7222 10.5999C70.9202 10.977 71.3325 12.1873 71.3325 12.1873C71.5698 10.7617 72.7117 9.98339 73.6177 8.8988C74.5236 7.81421 74.0802 6.27627 74.1019 4.95898Z" fill="#F26742"/>
<path d="M69.4963 4.83048C69.5508 4.64654 69.5849 4.45731 69.598 4.26611C69.5278 4.44609 69.4933 4.63768 69.4963 4.83048Z" fill="#F26742"/>
<path d="M69.4961 4.83057C69.2425 5.69449 68.5658 6.3431 67.8483 6.92485C67.1702 7.47316 66.4474 8.1405 66.4704 9.0432L66.29 10.5838C66.29 10.656 66.29 10.7296 66.29 10.8031C66.8773 9.56209 67.7886 8.89342 68.7122 7.87437C69.1521 7.38714 69.4354 6.78203 69.526 6.13582C69.5734 5.7413 69.488 5.26387 69.4961 4.83057Z" fill="#F26742"/>
<path d="M71.3367 4.27019C71.2309 4.79309 71.6364 6.20399 71.6364 6.20399C72.0053 5.61021 72.3525 5.27855 72.5397 4.59918C72.6733 4.06034 72.8695 3.53846 73.1242 3.04384C73.4001 2.59285 73.5844 2.0932 73.6667 1.57276C73.7168 1.23843 73.7345 0.846584 73.8104 0.492188C73.192 1.67841 71.6974 2.46745 71.3367 4.27019Z" fill="#F26742"/>
<path d="M73.8103 0.498827C73.8952 0.343045 73.9534 0.174499 73.9825 0C73.902 0.157623 73.844 0.325497 73.8103 0.498827Z" fill="#F26742"/>
<path d="M15.8255 13.3853C15.6682 14.4404 14.9277 14.9259 14.369 15.7336C13.9146 16.3916 13.6908 17.428 14.4435 17.8734L15.2247 19.414C15.3346 19.521 15.5244 18.3441 15.5258 18.0365C15.5258 17.4548 15.2017 17.0001 15.1637 16.4518C15.0905 15.4274 15.8269 14.4685 15.8255 13.3853Z" fill="#F26742"/>
<path d="M49.0486 11.9639C48.8018 12.9 47.866 13.1675 47.2611 13.8535C46.5437 14.6559 47.1621 15.3861 47.0658 16.2701V17.3962C47.0618 17.4692 47.0618 17.5424 47.0658 17.6155C47.2476 16.5068 48.3936 16.0548 48.8289 15.0986C49.0662 14.5744 48.8452 14.0287 48.8126 13.4858C48.7801 12.9428 48.9279 12.4721 49.0486 11.9639Z" fill="#F26742"/>
<path d="M35.9594 18.6641C35.9387 18.6828 35.9208 18.7015 35.9028 18.7202L35.9594 18.6641Z" fill="#F89B54"/>
<path d="M43.9858 19.8115C43.9858 19.7835 43.9969 19.754 44.001 19.7246C43.9955 19.754 43.99 19.7835 43.9858 19.8115Z" fill="#F89B54"/>
<path d="M47.1338 20.8371C47.1691 20.7996 47.203 20.7608 47.2355 20.7207C47.1973 20.7556 47.1631 20.7946 47.1338 20.8371Z" fill="#F89B54"/>
<path d="M78.9152 23.3207C78.9152 23.3207 77.0301 25.0593 76.0319 24.9108C76.0319 24.4708 76.2557 24.1458 76.2041 23.6751C76.1526 23.2044 75.6752 22.7523 76.0685 22.3204C75.0975 23.1375 74.2173 23.6497 72.9492 23.9586C71.7924 24.2408 71.3082 24.5283 70.6057 25.4912C70.6342 24.5885 71.3747 23.7527 71.3896 22.7871C71.4045 21.8697 70.7237 21.1943 70.6572 20.3638C70.2424 20.7083 69.787 21.0024 69.301 21.2398C69.3462 20.9081 69.4192 20.5806 69.5194 20.2609C69.1125 20.876 68.4209 20.7757 67.835 20.9977C66.8273 21.3775 66.5479 22.4381 65.8129 23.1241C65.9037 22.5892 66.4164 21.9994 66.6903 21.5193C67.0349 20.9062 67.3175 20.2612 67.5339 19.5935C67.7844 18.8321 67.9107 18.0363 67.9082 17.2358C67.9082 16.5457 67.8418 16.0629 67.5339 15.4451C67.4051 15.1856 67.2003 14.8139 67.2179 14.4916C66.5561 15.4758 64.854 16.0629 63.883 16.4387C62.6787 16.9055 62.1389 17.2318 61.4961 18.2843C61.3889 17.9767 61.2519 17.4819 61.1801 17.2732C60.8939 19.6952 57.8573 20.3491 55.8908 20.9977C54.399 21.4845 53.39 22.1251 52.4149 23.3194C52.301 22.6774 52.2901 22.0703 52.0894 21.4284C51.8887 20.7864 51.4628 20.2836 51.4886 19.6096C51.1862 20.3037 50.527 20.7824 50.1324 21.4284C49.8611 21.8857 49.674 23.1348 49.2264 23.3167C49.2129 23.0733 49.2156 22.8219 49.2197 22.5758C48.8277 23.1709 48.7409 23.8035 48.2703 24.3906C47.9907 24.7345 47.6777 25.0507 47.3359 25.3348C47.2491 24.9884 47.1501 24.642 47.0714 24.2649C46.9263 23.5962 47.0253 22.9931 47.0538 22.3725C47.0768 21.8964 46.849 21.2398 47.1257 20.8346C46.7649 21.2171 46.2306 21.4859 45.9308 21.9539C45.6515 22.3912 45.524 22.8901 45.2202 23.3113C45.4914 22.5089 45.5552 22.1265 44.8947 21.4391C44.3441 20.8627 43.8599 20.6059 43.9779 19.8128C43.8599 20.408 43.4354 20.6701 42.9146 20.9523C42.2243 21.3294 41.7863 21.9218 41.1516 22.3578C40.6091 22.7323 40.0069 22.7202 39.4943 23.1442C39.0264 23.5293 38.7212 24.1191 38.3523 24.6059C38.3117 24.0001 38.5395 23.4758 38.4744 22.9075C38.3998 22.2535 37.9848 21.6303 37.5739 21.1275C37.0884 20.5337 35.0323 19.6323 35.8895 18.7202C34.772 19.8008 32.6888 19.4986 32.2453 21.2612C32.0812 20.3799 31.5672 19.6885 31.6717 18.7029C31.7422 17.9767 32.168 17.3388 32.3186 16.6326C32.602 15.2953 32.0351 13.8697 31.7924 12.6206C31.6364 13.4845 31.6567 14.0409 31.0112 14.7363C30.3656 15.4317 29.617 15.9051 28.8019 16.4401C28.1876 16.8413 27.3874 17.4016 27.1351 18.1131C26.872 18.8526 27.207 19.6457 26.712 20.3465C26.655 19.7166 26.8558 19.2097 26.5764 18.5277C26.3485 17.966 25.8061 17.5728 26.0407 16.9496C25.5389 17.7065 24.5204 17.9941 24.1135 18.7617C23.6293 19.6751 23.8206 20.7677 23.1384 21.6062C22.3247 22.6026 21.0308 22.7256 20.1452 23.5614C19.3315 24.3317 19.4387 25.2518 19.0603 26.2107C19.1267 25.4083 17.9956 24.4387 17.3813 24.0509C16.691 23.6176 15.8989 23.6029 16.4252 22.6387C15.8122 23.3595 15.0784 23.6724 14.3786 24.2702C13.6788 24.868 13.1784 25.875 12.3443 26.2762C12.3118 25.6731 12.0324 25.1368 12.0229 24.5698C11.5778 24.8398 11.2103 25.2178 10.9556 25.6677C11.1034 24.1753 9.78787 22.8366 10.169 21.4391C9.21962 22.8312 7.91359 23.9546 6.29021 24.5618C5.15777 24.9857 3.84903 24.7864 3.1004 25.8443C3.17093 25.2732 3.4381 24.6995 3.45166 24.1057C3.21433 25.0338 1.80929 25.4524 1.23969 26.1639C0.968444 26.5063 1.22341 27.9399 1.82828 27.9947H77.4641C77.4641 27.9947 80.7691 26.9342 78.9152 23.3207Z" fill="#F89B54"/>
<path d="M67.2219 14.4876C67.3067 14.3633 67.3742 14.2284 67.4226 14.0864C67.3618 14.135 67.3124 14.1961 67.2777 14.2653C67.2431 14.3346 67.224 14.4104 67.2219 14.4876Z" fill="#F89B54"/>
<path d="M42.5022 23.4104L42.5698 23.377C42.5456 23.3846 42.5228 23.3958 42.5022 23.4104Z" fill="#FFCC4D"/>
<path d="M25.2744 21.6689C25.291 21.6341 25.3075 21.6007 25.3227 21.5659C25.3047 21.5994 25.2886 21.6337 25.2744 21.6689Z" fill="#FFCC4D"/>
<path d="M64.397 19.2192L64.5896 19.1724C64.524 19.1821 64.4596 19.1978 64.397 19.2192Z" fill="#FFCC4D"/>
<path d="M56.6895 22.6719C56.7803 22.6719 56.8712 22.6719 56.9607 22.6719C56.8713 22.653 56.7789 22.653 56.6895 22.6719Z" fill="#FFCC4D"/>
<path d="M76.8672 25.9259C76.4603 26.3365 75.8283 26.7417 75.2506 26.8072C75.4337 26.4248 75.7795 26.1011 74.9997 26.1025C74.5047 26.1025 73.9975 26.3338 73.4604 26.3458C73.7316 25.8109 73.7777 25.2318 74.2592 24.7985C72.7674 24.7477 71.6146 26.0583 70.1906 26.2843C69.9302 26.3258 69.6752 26.3606 69.423 26.3953C69.3977 26.3749 69.3737 26.353 69.3511 26.3298C68.7259 25.6692 69.5314 24.4254 69.5192 23.6939C69.309 24.0122 68.9551 24.1539 68.6743 24.4107C68.3068 24.745 68.0735 25.1971 67.6829 25.5073C67.3636 25.7548 67.0078 25.9528 66.6278 26.0944C66.7539 25.7119 66.9194 25.3295 66.9614 25.1115C67.0794 24.503 66.9492 23.5735 67.466 23.1496C66.2454 24.063 64.4972 24.0256 63.1017 24.6207C62.6789 24.7972 62.2973 25.0571 61.9801 25.3843C61.9191 24.9269 62.1157 24.3693 62.5551 23.7795C63.2631 22.83 63.7757 21.9273 63.8856 20.7664C63.9398 20.2114 63.7676 19.4291 64.3928 19.2124C63.5696 19.4291 62.8358 19.8504 62.0587 20.2462C60.7486 20.9149 59.2934 21.51 58.2491 22.5598C57.8423 22.961 57.4693 23.3622 56.7912 23.1362C56.4264 23.0145 56.4101 22.735 56.6827 22.6655C55.9436 22.6802 55.2424 22.7671 54.5698 23.1202C53.8971 23.4732 53.5662 24.2248 52.8772 24.6033C52.3144 24.9135 51.6905 24.9804 51.3718 25.5555C51.007 25.3562 51.2077 24.9604 51.1331 24.6193C51.0477 24.2302 50.79 23.8343 50.6679 23.4558C50.1255 23.9226 49.9898 24.7263 49.5084 25.2639C49.1341 25.2185 49.1992 24.8507 49.2738 24.5658C48.5645 24.8627 48.4858 25.7293 47.9786 26.2068C47.5365 26.6213 46.5044 26.9075 45.9212 26.6949C45.0071 26.3606 45.0397 24.6019 45.433 23.9172C45.1807 23.9533 45.0722 24.1339 44.8905 24.3184C44.405 24.7985 43.9276 25.2786 43.3092 25.6304C42.6012 26.0316 42.0953 26.3592 41.3087 26.5063C41.3725 25.9313 42.0479 25.3602 42.216 24.7504C42.3137 24.3907 42.231 23.5989 42.5036 23.405C41.6017 23.853 40.7825 24.5351 39.9335 25.0473C39.0493 25.5822 38.1216 25.4485 37.5154 26.4314C37.2211 25.9901 36.4074 25.4859 36.3125 25.0834C36.4793 25.6397 36.3871 25.9727 36.1768 26.5063C35.1353 25.8377 35.4187 24.8774 35.4689 23.8477C35.515 22.8968 35.2316 22.1827 34.8057 21.3816C34.9101 22.5157 34.1927 23.722 33.1322 24.1352C33.1905 23.9921 33.1796 23.829 33.2379 23.6765C32.6304 24.0189 32.3401 24.0282 31.6281 24.1312C30.6964 24.2649 30.2719 24.7584 29.7593 25.4899C29.7701 24.8213 29.9179 24.297 30.002 23.6712C30.1051 22.9102 29.8664 22.0663 29.6277 21.3602C29.3565 20.5351 28.9211 18.8193 29.5572 18.0503C28.4356 18.9062 28.6377 20.713 27.7792 21.8323C26.9546 22.9022 25.4953 23.492 25.5442 25.0874C24.9162 24.5324 25.0329 24.0175 25.1495 23.2566C25.2241 22.7738 25.0885 22.1279 25.2729 21.6638C24.6803 22.9008 23.6455 23.1884 22.4018 23.8343C21.1243 24.4936 20.2577 24.9256 19.6894 26.2188C19.4873 26.6735 19.4982 26.8099 19.0113 26.9289C18.694 27.0065 18.2342 27.0038 17.9263 27.048C17.3499 27.1309 15.8527 27.413 16.1728 26.4609C15.9125 26.5962 15.6931 26.7969 15.5367 27.0426C15.1624 26.3967 15.4011 25.5648 15.8079 24.9711C14.7813 25.1396 14.194 26.1158 13.3071 26.5598C12.6073 26.9102 11.6796 26.8273 10.9731 27.0948C10.9839 26.7992 11.0449 26.1586 11.1941 25.9567C10.554 26.4609 8.974 26.5304 8.61732 27.2004C8.65122 27.0172 8.98078 26.3699 8.7448 26.2228C8.50882 26.0757 7.9921 26.6481 7.84835 26.743C7.77918 26.3418 7.97719 25.9861 7.96227 25.5836C7.74527 25.7761 7.56897 25.962 7.30857 26.073C7.39027 25.6629 7.5271 25.2653 7.71544 24.8908C6.90171 25.3883 6.43518 25.8524 5.44107 26.0356C4.49173 26.2121 4.12148 26.5812 3.46779 27.1576C3.50034 27.0092 3.46779 26.834 3.50848 26.6922C2.96599 26.9329 2.8697 27.6939 3.39727 27.9908H76.3912C77.1723 27.52 77.9033 25.621 77.883 25.0393C77.4246 25.1329 77.1751 25.6143 76.8672 25.9259Z" fill="#FFCC4D"/>
<path d="M39.2338 8.78613C39.1707 8.93528 39.1313 9.09318 39.1172 9.2542C39.181 9.10528 39.2204 8.94728 39.2338 8.78613Z" fill="#F89B54"/>
<path d="M39.1076 10.2681C39.1415 9.90568 39.0859 9.58606 39.1171 9.25439C38.7373 10.129 37.5561 10.4807 36.9783 11.0478C36.5023 11.5145 36.2813 12.7609 36.4182 13.7412L36.5403 14.8111C36.7613 13.4965 37.6063 12.7676 38.3847 11.8769C38.798 11.4333 39.052 10.868 39.1076 10.2681Z" fill="#F89B54"/>
<path d="M23.076 10.3671C22.5823 10.8566 22.4996 11.1187 22.2786 11.4905C21.9775 11.996 22.0249 12.4079 21.9938 12.9736C21.9449 13.8576 21.9246 15.1134 21.355 15.8128C22.3437 14.8058 23.2374 14.5156 23.3161 12.9736C23.3798 11.7031 23.3757 10.426 24.2776 9.41895L23.076 10.3671Z" fill="#F89B54"/>
<path d="M58.9585 13.0698C58.5517 13.8508 57.7623 14.9568 56.9785 15.5466C56.3139 16.0454 55.606 16.8452 55.7172 17.7519L55.7768 18.462C55.7538 18.5008 55.6711 18.5155 55.7307 18.5436C56.2447 17.697 57.068 17.1099 57.8044 16.448C58.256 16.0468 58.5828 15.572 58.6629 14.9675C58.7158 14.5677 58.8595 13.4403 58.9585 13.0698Z" fill="#F89B54"/>
</g>
<defs>
<clipPath id="clip0_30_199">
<rect width="83" height="28" fill="white"/>
</clipPath>
</defs>
</svg>
