<svg width="52" height="34" viewBox="0 0 52 34" fill="none" xmlns="http://www.w3.org/2000/svg">
<rect x="12.0933" y="3.41016" width="3" height="28.5" transform="rotate(-7.36305 12.0933 3.41016)" fill="#725C42"/>
<path d="M14.9265 13.6312L27.819 22.1744L4.62917 25.171L14.9265 13.6312Z" fill="#69C17E"/>
<path d="M14.1576 7.68088L25.6177 15.2748L5.00444 17.9385L14.1576 7.68088Z" fill="#69C17E"/>
<path d="M13.3886 1.73053L23.4161 8.37524L5.37958 10.706L13.3886 1.73053Z" fill="#69C17E"/>
<rect x="36.0365" y="3.90869" width="3" height="28.5" transform="rotate(-1.56408 36.0365 3.90869)" fill="#725C42"/>
<path d="M37.8225 14.3639L49.7858 24.1661L26.4119 24.8043L37.8225 14.3639Z" fill="#69C17E"/>
<path d="M37.6587 8.36631L48.2928 17.0793L27.516 17.6466L37.6587 8.36631Z" fill="#69C17E"/>
<path d="M37.495 2.36819L46.7998 9.99205L28.6201 10.4885L37.495 2.36819Z" fill="#69C17E"/>
<rect x="25.9446" y="7.48145" width="2.44206" height="23.1995" transform="rotate(13.5859 25.9446 7.48145)" fill="#725C42"/>
<path d="M25.1237 16.076L32.4383 26.3229L13.9369 21.8518L25.1237 16.076Z" fill="#69C17E"/>
<path d="M26.2709 11.3288L32.7728 20.4371L16.3271 16.4628L26.2709 11.3288Z" fill="#69C17E"/>
<path d="M27.4183 6.58149L33.1074 14.5513L18.7175 11.0737L27.4183 6.58149Z" fill="#69C17E"/>
</svg>
