<svg width="122" height="165" viewBox="0 0 122 165" fill="none" xmlns="http://www.w3.org/2000/svg">
<path d="M45 132L14.6891 49.5L75.3109 49.5L45 132Z" fill="#60A1BF"/>
<path d="M76 165L53.4833 72.75H98.5167L76 165Z" fill="#60A1BF"/>
<path d="M65 135L30.359 33.75L99.641 33.75L65 135Z" fill="#B9D9E8"/>
<path d="M92 113L66.0192 33.5L117.981 33.5L92 113Z" fill="#B9D9E8"/>
<path d="M25 97L3.34937 33.25L46.6506 33.25L25 97Z" fill="#B9D9E8"/>
<rect x="118" y="35" width="114" height="0.99999" transform="rotate(-180 118 35)" fill="#B9D9E8"/>
<rect x="118" y="34" width="115" height="1.99999" transform="rotate(-180 118 34)" fill="white"/>
<path d="M59 47L54.6699 32L63.3301 32L59 47Z" fill="white"/>
<path d="M12 46L4.20577 34.75L19.7942 34.75L12 46Z" fill="#80BBD1"/>
<path d="M82 46L74.2058 34.75L89.7942 34.75L82 46Z" fill="#80BBD1"/>
<path d="M19.5 54L13.8708 34.5L25.1292 34.5L19.5 54Z" fill="#80BBD1"/>
<path d="M26.5 50L20.8708 35L32.1292 35L26.5 50Z" fill="#80BBD1"/>
<path d="M36.5 50L28.2728 35L44.7272 35L36.5 50Z" fill="#80BBD1"/>
<path d="M109.5 50L101.273 35L117.727 35L109.5 50Z" fill="#80BBD1"/>
<path d="M104 50L99.6699 35L108.33 35L104 50Z" fill="#80BBD1"/>
<path d="M48.5 54L40.2728 34.5L56.7272 34.5L48.5 54Z" fill="#80BBD1"/>
<path d="M95.5 54L87.2728 34.5L103.727 34.5L95.5 54Z" fill="#80BBD1"/>
<path d="M66.5 51L58.2728 34.5L74.7272 34.5L66.5 51Z" fill="#80BBD1"/>
<rect x="118" y="34" width="115" height="1.99999" transform="rotate(-180 118 34)" fill="white"/>
<path d="M59 47L54.6699 32L63.3301 32L59 47Z" fill="white"/>
<path d="M12.7672 43.1626L5.17453 34.3111L20.3598 34.3111L12.7672 43.1626Z" fill="#F3FBFE"/>
<path d="M80.7672 41.5308L73.1745 32.6792L88.3598 32.6792L80.7672 41.5308Z" fill="#F3FBFE"/>
<path d="M20.0733 49.457L14.5897 34.1144L25.5568 34.1144L20.0733 49.457Z" fill="#F3FBFE"/>
<path d="M26.8922 46.3096L21.4086 34.5075L32.3758 34.5075L26.8922 46.3096Z" fill="#F3FBFE"/>
<path d="M36.6336 46.3096L28.6192 34.5075L44.6481 34.5075L36.6336 46.3096Z" fill="#F3FBFE"/>
<path d="M107.746 46.3096L99.7312 34.5075L115.76 34.5075L107.746 46.3096Z" fill="#F3FBFE"/>
<path d="M102.388 46.3096L98.1698 34.5075L106.606 34.5075L102.388 46.3096Z" fill="#F3FBFE"/>
<path d="M48.3233 49.457L40.3089 34.1144L56.3378 34.1144L48.3233 49.457Z" fill="#F3FBFE"/>
<path d="M94.1078 49.457L86.0933 34.1144L102.122 34.1144L94.1078 49.457Z" fill="#F3FBFE"/>
<path d="M65.8578 47.0967L57.8433 34.1144L73.8722 34.1144L65.8578 47.0967Z" fill="#F3FBFE"/>
</svg>
