<svg width="115" height="23" viewBox="0 0 115 23" fill="none" xmlns="http://www.w3.org/2000/svg">
<rect x="115" y="7" width="115" height="1.99999" transform="rotate(-180 115 7)" fill="white"/>
<path d="M56 20L51.6699 5L60.3301 5L56 20Z" fill="white"/>
<path d="M9.76718 16.1626L2.17453 7.31106L17.3598 7.31105L9.76718 16.1626Z" fill="#F3FBFE"/>
<path d="M77.7672 14.5308L70.1745 5.67922L85.3598 5.67922L77.7672 14.5308Z" fill="#F3FBFE"/>
<path d="M17.0733 22.457L11.5897 7.11436L22.5568 7.11436L17.0733 22.457Z" fill="#F3FBFE"/>
<path d="M23.8922 19.3096L18.4086 7.50751L29.3758 7.50751L23.8922 19.3096Z" fill="#F3FBFE"/>
<path d="M33.6336 19.3096L25.6192 7.50751L41.6481 7.50751L33.6336 19.3096Z" fill="#F3FBFE"/>
<path d="M104.746 19.3096L96.7312 7.50751L112.76 7.50751L104.746 19.3096Z" fill="#F3FBFE"/>
<path d="M99.388 19.3096L95.1698 7.50752L103.606 7.50751L99.388 19.3096Z" fill="#F3FBFE"/>
<path d="M45.3233 22.457L37.3089 7.11436L53.3378 7.11436L45.3233 22.457Z" fill="#F3FBFE"/>
<path d="M91.1078 22.457L83.0933 7.11436L99.1222 7.11436L91.1078 22.457Z" fill="#F3FBFE"/>
<path d="M62.8578 20.0967L54.8433 7.11442L70.8722 7.11442L62.8578 20.0967Z" fill="#F3FBFE"/>
</svg>
