<svg id="Layer_1" data-name="Layer 1" xmlns="http://www.w3.org/2000/svg" viewBox="0 0 579.86 409.2"><defs><style>.cls-1{fill:#db1f26;}.cls-2{fill:#bf2026;}.cls-3{fill:#ea382f;}.cls-4{fill:#ed302b;}.cls-5{fill:#ef3e37;}.cls-6{fill:#f3bc5b;}.cls-7{fill:#ffd278;}.cls-8{fill:#482d35;}.cls-9{fill:#78cbc0;}.cls-10{fill:#cc2027;}.cls-11{fill:#331d26;}.cls-12{fill:#201218;}</style></defs><path class="cls-1" d="M77.62,668.22C72.7,668,59.71,681.89,58,697.31l13.64-2.73C64.61,679.82,79.16,668.3,77.62,668.22Z" transform="translate(-13.31 -374.54)"/><path class="cls-2" d="M240.56,704.06c7-12.29,15.45-22.93,11.58-29.42-2.65-4.44-10.82-6.73-26.68-6.66,0,0,17.45-10.2,28.15-11.65a56.1,56.1,0,0,1,18.6.42s-16.47,7.87-14.06,15.16c1.18,3.6,12.18-1.56,19-3,6.18-1.31-15.89,24.51-15.89,24.51Z" transform="translate(-13.31 -374.54)"/><path class="cls-2" d="M113.74,652.77c74.39,36.43,179.85,9,226.13-19.91,0,0-27.12-20.87,6.18-60.88,0,0-102.93-87.78-27.69-165.45C178.71,454.89,108.39,522.81,113.74,652.77Z" transform="translate(-13.31 -374.54)"/><path class="cls-2" d="M24.23,732.67a15.11,15.11,0,0,0-4.09,10.38c0,1,3-1.51,3-1.51s14.75,4.65,20.07,4.37,11.61-6.14,14.75-8.19,25.93-9.59,32.77-8.74c2.18.28.41-18.43.41-18.43s-7.92-5.73-11.61-6C79.12,704.51,24.23,732.67,24.23,732.67Z" transform="translate(-13.31 -374.54)"/><path class="cls-2" d="M23.47,739.7c-.51,3.48.31,5.32.62,5.63s6.25-5.83,6.55-7.06S23.47,739.7,23.47,739.7Z" transform="translate(-13.31 -374.54)"/><path class="cls-3" d="M247.47,695.53c10-13.58,21.06-25,18.77-33.24-1.56-5.64-9.18-9.51-25.07-11.68,0,0,20-9.62,31-9.83s19.76,12.49,19.76,12.49-15.25,1.23-16.07,5.74,9.63.77,16.76,0c6.51-.69-21.88,26.81-21.88,26.81Z" transform="translate(-13.31 -374.54)"/><path class="cls-3" d="M130.87,596.54c57.34,64.72,168.76,65.13,224.05,45.88,0,0-18-32.36,29.09-68.41,0,0-65.13-132.71,36.45-199.47C268.36,387.85,175.2,444.85,130.87,596.54Z" transform="translate(-13.31 -374.54)"/><path class="cls-2" d="M166.05,783.73h28.78s13.77-14.36,24.31-20.27l3-4.79S205,761.56,209.8,742.48c5.79-23-19.18-29.28-39.07-14.36,0,0,9.42,21.23,17.2,28,2.52,2.2,9,12.33-7.28,21.48C180.65,777.62,167.5,777.54,166.05,783.73Z" transform="translate(-13.31 -374.54)"/><path class="cls-2" d="M345.87,783.73h37.32s.88-19.28,29.2-35.41c9.19-10.19-9.74-7.73-21.94-12.85.75-30.6-38.14-31.61-63.58-11.74,0,0,12.08,27,47.92,33.17,1.1,2.67-4.36,12-12.09,21.13C362.7,778,347.3,778.28,345.87,783.73Z" transform="translate(-13.31 -374.54)"/><path class="cls-4" d="M80.08,722.7c20.89-20.07,32.36-22.12,50.79-11.88S188.21,758.75,228,756.7s69.46-22.53,102.81-16.79c33,5.67,87.24,18.43,127.79-3.28S523.27,667,502.38,617,434,525.68,461,481.85c21.91-35.51,94.62-39.32,112.65,3.69s-16.8,78.64-16.8,78.64l1.23,2.05c52-41,43.83-115.51-9-133.12s-131.41,8.14-130.26,75c1.23,71.27,63.49,130.66,42.6,164.25-18.84,30.29-55.63,23.55-79.46,9.83-28-16.11-68-30.31-97.08-21.3s-46.28,79.88-111.82,41.78-95-9.83-102.4-2.46S80.08,722.7,80.08,722.7Z" transform="translate(-13.31 -374.54)"/><path class="cls-5" d="M549.08,433.11c-52.84-17.61-131.41,8.14-130.26,75,.47,26.91,9.64,52.13,19.74,74.91,15.89,20.47,38.75,33.91,64.44,35.61-.21-.52-.4-1-.62-1.57-20.89-50-68.4-91.34-41.37-135.17,21.91-35.51,94.62-39.32,112.65,3.69s-16.8,78.64-16.8,78.64l1.23,2.05C610.11,525.27,601.92,450.72,549.08,433.11Z" transform="translate(-13.31 -374.54)"/><path class="cls-5" d="M460.85,541.12c7.57,23.13,26.12,46.71,40,72.38C489.33,587.63,471.2,564,460.85,541.12Z" transform="translate(-13.31 -374.54)"/><path class="cls-5" d="M422.3,520c1.26-96.88,121.53-102.11,162.5-56.86a62.29,62.29,0,0,0-35.72-30c-52.84-17.61-131.41,8.14-130.26,75,.29,16.81,4,33,9.17,48.27C424.69,544.63,422.14,532.47,422.3,520Z" transform="translate(-13.31 -374.54)"/><path class="cls-5" d="M586.86,528.63a63,63,0,0,0-5-31.21A45.66,45.66,0,0,0,572.94,484c.23.5.5,1,.72,1.51,18,43-16.8,78.64-16.8,78.64l1.23,2.05A92.51,92.51,0,0,0,586.86,528.63Z" transform="translate(-13.31 -374.54)"/><path class="cls-5" d="M165.57,705.09c22.28,12.56,37.84,27.76,64.72,22.12,39-8.2,40.27-45.3,60.35-51.34,30-9,64.84,2,93.68,18.16,24.55,13.72,58.4,20.05,77.81-10.24,8.33-13,7.88-29.45-.84-49.38,5.11,14.81,6.56,27.58.13,37.91-18.84,30.29-55.4,22.32-79.23,8.6-28-16.11-67.79-29.9-96.87-20.89S239.44,739.5,173.9,701.4,78,692.8,70.66,700.17c-2,2-2.2,4.44-1.54,7C104.27,683,109,673.14,165.57,705.09Z" transform="translate(-13.31 -374.54)"/><path class="cls-1" d="M420.87,491.68c0-.95,0-1.89,0-2.83a76.08,76.08,0,0,0-2.05,19.22c1,58.77,43.52,109.46,46.69,144.27C470.66,594.29,422.08,561.58,420.87,491.68Z" transform="translate(-13.31 -374.54)"/><path class="cls-1" d="M573.66,485.54c18,43-16.8,78.64-16.8,78.64l.88,1.47C568,554.28,597.3,516,573.68,471.2c-21.73-41.26-92.57-34.14-114.48,1.38-27,43.83,10.44,81.77,31.33,131.74s1.5,85.89-39,107.59-79-8-112-13.65c-33.35-5.73-69.79,40-109.53,42.06s-78.64-35.64-97.07-45.88c-9.88-5.49-17.37-7.28-30-1.23-2.81-1.58-9.28-6.28-20.48-2.39-4.14,2.83-6,19.88-9.91,23.25a56.28,56.28,0,0,0,7.57,8.63c20.89-20.07,32.36-22.12,50.79-11.88S188.21,758.75,228,756.7,298.67,736.22,332,742c33,5.68,83.77,21.1,124.32-.61S523.27,667,502.38,617,434,525.68,461,481.85C482.92,446.34,555.63,442.53,573.66,485.54Z" transform="translate(-13.31 -374.54)"/><path class="cls-6" d="M456.67,734c-40.55,21.71-91.66,4.86-124.66-.82C298.67,727.48,267.68,745.91,228,748s-73.71-30.31-92.14-40.55S103,697,82.15,717.1l-2.07,5.6c20.89-20.07,32.11-21.44,50.54-11.19s57.89,48.06,97.62,46,70.22-19,103.57-13.31c33,5.67,84.31,20.27,124.86-1.44,32-17.11,55.18-54.8,53.32-93.9C508.32,684.57,486.25,718.2,456.67,734Z" transform="translate(-13.31 -374.54)"/><path class="cls-7" d="M315.63,737.45c-31.07,0-56.73,10.85-74,18.81,33.39-4.42,60.65-17.13,90.14-12,13.36,2.29,29.72,6,47.15,8.27C364.34,744.13,342.79,737.45,315.63,737.45Z" transform="translate(-13.31 -374.54)"/><path class="cls-3" d="M252.64,783.73h26.69s3.78-15.94,10.74-22l-.29-4.92s-15.52,4.13-24.08-15.51c-10.32-23.66-40.62-17-51.07-1.6,0,0,6.15,13,41.64,17.11,3.77.43,18.23,11.24,7.5,20.66C263.77,777.44,249.74,777.36,252.64,783.73Z" transform="translate(-13.31 -374.54)"/><path class="cls-4" d="M417,783.73h34s-12.91-21.7,3.89-39.86c1.91-11.47-15.27-8.71-31.13-14.48-21.12-34.44-46-39-77.94-30.31,0,0,3.28,57.07,76.68,50.9,3,3,8.49,17.1,7.27,27.34C429.75,777.32,414.52,777.59,417,783.73Z" transform="translate(-13.31 -374.54)"/><path class="cls-4" d="M18.32,733.39c-1.57,3.12,5.88,7.1,23.1,5.34l3.68-7.11a26.61,26.61,0,0,0,18.28-1.2s-10.89-3.47-3.09-7.61,23.81,2,23.81,2S82.49,714,98.35,712.27c4.66-15,1.72-20.18-13.33-22.13,0,0-21.37,2.92-29.3,7.19s-16,14.94-16,14.94l2.21,3.28C39.79,720.35,20.07,729.92,18.32,733.39Z" transform="translate(-13.31 -374.54)"/><path class="cls-5" d="M71.72,694.56c3.57-1.88,10.82-4.11,14.37-5.57-6.55,1.06-24.77,3.7-30.77,7-8,4.37-15.25,15.7-15.25,15.7l.52.78C61.6,707.14,60,700.72,71.72,694.56Z" transform="translate(-13.31 -374.54)"/><path class="cls-1" d="M101,696.64c-11.54.2-21.31,6.37-21.31,15.68a19,19,0,0,0,5.1,12l.36.14s-.81-9.7,15.3-11.47C102.53,706.25,102.3,700.08,101,696.64Z" transform="translate(-13.31 -374.54)"/><path class="cls-1" d="M66.18,709.46c0-3.88,0-9.65,2.86-13.35-3.83,2.29-5.25,0-9.45,6.17-4,5.81-14.07,7.82-19.43,9.5L42.32,715a7.53,7.53,0,0,1-1.63,2.08,63.41,63.41,0,0,1,13.54-1.48,70.23,70.23,0,0,1,14.5,1.47A13.05,13.05,0,0,1,66.18,709.46Z" transform="translate(-13.31 -374.54)"/><path class="cls-8" d="M39.89,716.08l.85,1.1s17.59.33,13.9-10.59C54.64,706.59,43.27,711.42,39.89,716.08Z" transform="translate(-13.31 -374.54)"/><path class="cls-8" d="M13.31,733.76c0,1.44,5.59,2.41,8,2.25S30,724.71,30,724.71s-3.43,1.06-4.65,1.27C23,726.39,13.31,732.53,13.31,733.76Z" transform="translate(-13.31 -374.54)"/><path class="cls-5" d="M89.64,664.86C84.75,665,71,679.3,68.33,694l13.76-3.76C76,676.92,91.16,664.8,89.64,664.86Z" transform="translate(-13.31 -374.54)"/><path class="cls-9" d="M45.5,714a12.44,12.44,0,0,0,1.86-.15c2.23-.38,2-.7,3.37-2.76A9.59,9.59,0,0,0,45.5,714Z" transform="translate(-13.31 -374.54)"/><path class="cls-1" d="M36.65,713.49l2.38,4A23.07,23.07,0,0,1,50,710c6.33-2.06,8.85-5.07,10.19-10.37a13.19,13.19,0,0,1-10.94,7.73C42.22,707.88,36.65,713.49,36.65,713.49Z" transform="translate(-13.31 -374.54)"/><path class="cls-1" d="M289.78,756.78s-15.52,4.13-24.08-15.51a26.8,26.8,0,0,0-5.8-8.59c5.26,6.5,7.23,13.2,4.45,17.71-4.47,7.28-29.77,2-43.89-6.66a34,34,0,0,1-5.67-4.28c0,.08-.11.15-.16.22s5.09,13.65,40.58,17.75c3.75.43,19.06,10.46,8.77,19.82,8.64.39,15.3,2.73,15.3,5.57a2.06,2.06,0,0,1-.26.92h.31s3.78-15.94,10.74-22Z" transform="translate(-13.31 -374.54)"/><path class="cls-10" d="M289.78,756.8v0l-.14,0Z" transform="translate(-13.31 -374.54)"/><path class="cls-10" d="M267.12,768.08c1.3-9.54,9.19-10.66,20.25-11-4.7.27-15.18-1-21.67-15.84a26.8,26.8,0,0,0-5.8-8.59c5.26,6.5,7.23,13.2,4.45,17.71-4.47,7.28-29.77,2-43.89-6.66a34,34,0,0,1-5.67-4.28c0,.08-.11.15-.16.22s5.09,13.65,40.58,17.75C257.71,757.7,265.37,762.28,267.12,768.08Z" transform="translate(-13.31 -374.54)"/><path class="cls-1" d="M423.74,729.39c-1.35-2.19-2.71-4.27-4.09-6.22A98,98,0,0,1,425,734.58c4.39,13.16-25.2,17.57-46.76,6.34a94.08,94.08,0,0,1-25.14-19.48c8.72,15.22,27.79,32,69.39,28.54,3,3,8.49,17.1,7.27,27.34,0,0-15.23.27-12.76,6.41h34s-12.91-21.71,3.89-39.86C456.78,732.4,439.6,735.16,423.74,729.39Z" transform="translate(-13.31 -374.54)"/><path class="cls-10" d="M422.48,750a12.68,12.68,0,0,1,1.88,2.74c7.85-8.81,17.09-14.72,25.77-16.91-5.94-2.54-16.42-2.79-26.39-6.42-1.35-2.19-2.71-4.27-4.09-6.22A98,98,0,0,1,425,734.58c4.39,13.16-25.2,17.57-46.76,6.34a94.08,94.08,0,0,1-25.14-19.48C361.81,736.66,380.88,753.48,422.48,750Z" transform="translate(-13.31 -374.54)"/><path class="cls-1" d="M384.1,574.38l-.38-.82a364.94,364.94,0,0,0-48.12-3.84c-49.07-1-199.87,1.52-191.14,19.91,27.27,57.42,132.44,53.65,190.92,53.82,6.4,0,12.66-.17,18.75-.53l.68-.23S336.89,610.28,384.1,574.38Z" transform="translate(-13.31 -374.54)"/><path class="cls-1" d="M412.23,380.38c-143,17.54-228.78,72.24-263.72,197.32,0,0,89.51-20.14,233.85-7.31C373.18,549.41,331.54,441.87,412.23,380.38Z" transform="translate(-13.31 -374.54)"/><path class="cls-11" d="M28.17,725.27c-.47.22-.9.42-1.2.53-2,.76-8.28,6.61-10.63,9.67a18.65,18.65,0,0,0,5,.54c2.4-.16,8.74-11.3,8.74-11.3S29.18,725,28.17,725.27Z" transform="translate(-13.31 -374.54)"/><path class="cls-12" d="M26.45,728.07a6.55,6.55,0,0,1-.67.3c-1.08.41-4.56,3.64-5.85,5.32a10.08,10.08,0,0,0,2.73.3c1.32-.09,4.82-6.22,4.82-6.22Z" transform="translate(-13.31 -374.54)"/><path class="cls-2" d="M532.17,587.94a109.44,109.44,0,0,0,38.1-24.17l.25-9.18-3.94,1.54-.13-4.65-10.38,1.92Z" transform="translate(-13.31 -374.54)"/><path class="cls-5" d="M394.07,693.41c-13.39-10.6-41.21-27.22-48.34-18.22S344.2,715.41,357.58,726s42.06,12.85,49.19,3.85S407.46,704,394.07,693.41Z" transform="translate(-13.31 -374.54)"/><path class="cls-5" d="M258.28,746.25c5.6-4-.41-22.37-11.88-31.13s-33.69-3.16-39.28.88-3.31,15.58,8.16,24.33S252.68,750.3,258.28,746.25Z" transform="translate(-13.31 -374.54)"/><path class="cls-6" d="M290.07,761.7l-2.19-4.63s8.7-1.81,12.59-1.91C300.47,755.16,293.59,759.54,290.07,761.7Z" transform="translate(-13.31 -374.54)"/><path class="cls-6" d="M254.26,779.64c-3,.61-4.17,4.09-4.17,4.09H256Z" transform="translate(-13.31 -374.54)"/><path class="cls-6" d="M260.06,779.64c-3,.61-4.17,4.09-4.17,4.09h5.87Z" transform="translate(-13.31 -374.54)"/><path class="cls-6" d="M265.72,779.64c-3,.61-4.16,4.09-4.16,4.09h5.87Z" transform="translate(-13.31 -374.54)"/><path class="cls-6" d="M421.06,779.64c-3,.61-4.17,4.09-4.17,4.09h5.87Z" transform="translate(-13.31 -374.54)"/><path class="cls-6" d="M426.86,779.64c-3,.61-4.16,4.09-4.16,4.09h5.87Z" transform="translate(-13.31 -374.54)"/><path class="cls-6" d="M432.53,779.64c-3,.61-4.17,4.09-4.17,4.09h5.87Z" transform="translate(-13.31 -374.54)"/><path class="cls-1" d="M352.47,780.16c-3.19.53-5.36,3.57-5.36,3.57H353Z" transform="translate(-13.31 -374.54)"/><path class="cls-1" d="M358.27,780.16c-3.18.53-5.36,3.57-5.36,3.57h5.87Z" transform="translate(-13.31 -374.54)"/><path class="cls-1" d="M363.94,780.16c-3.19.53-5.36,3.57-5.36,3.57h5.87Z" transform="translate(-13.31 -374.54)"/><path class="cls-3" d="M170.29,780.05c-3.19.55-5.4,3.68-5.4,3.68h5.87Z" transform="translate(-13.31 -374.54)"/><path class="cls-3" d="M176.09,780.05c-3.19.55-5.39,3.68-5.39,3.68h5.87Z" transform="translate(-13.31 -374.54)"/><path class="cls-3" d="M181.75,780.05c-3.18.55-5.39,3.68-5.39,3.68h5.87Z" transform="translate(-13.31 -374.54)"/><path class="cls-10" d="M287.37,452a275.39,275.39,0,0,1,85.86-21.39c7.43-18.15,19.71-35.48,39-50.18C275.87,397.1,191.59,447.59,153.74,560.63,181.23,519.07,228.9,476.76,287.37,452Z" transform="translate(-13.31 -374.54)"/><path class="cls-10" d="M267.25,586.62c33.92,4.47,64.79,11.44,89.14,19.51,4.57-9.66,13-20.53,27.71-31.75l-.38-.82a364.94,364.94,0,0,0-48.12-3.84c-45.79-.93-180.15,1.2-190.81,16.43C172.93,580.37,217.64,580.08,267.25,586.62Z" transform="translate(-13.31 -374.54)"/></svg>