<svg id="Layer_1" data-name="Layer 1" xmlns="http://www.w3.org/2000/svg" viewBox="0 0 455.46 745.09"><defs><style>.cls-1{fill:#65577b;}.cls-2{fill:#b2a78f;}.cls-3{fill:#3d354f;}.cls-4{fill:#776c8d;}.cls-5{fill:#524767;}.cls-6{fill:#564b6b;}.cls-7{fill:#453c59;}.cls-8{fill:#80938f;}.cls-9{fill:#9db0ab;}.cls-10{fill:#ddd2bd;}.cls-11{fill:#3f3751;}.cls-12{fill:#c5bba4;}.cls-13{fill:#594d6d;}.cls-14{fill:#4d445e;}.cls-15{fill:#373147;}.cls-16{fill:#86becc;}</style></defs><path class="cls-1" d="M507.61,236.25c.3,10.74-3,18.62-3.94,18.76s-3.76-14-3.76-14Z" transform="translate(-78.27 -23.45)"/><path class="cls-1" d="M500.49,235.34c.3,10.74-3,18.62-3.94,18.76s-3.76-14-3.76-14Z" transform="translate(-78.27 -23.45)"/><path class="cls-1" d="M493.69,234.72c1.06,11.72-2.4,19.26-3.33,19.39s-4.15-14.31-4.15-14.31Z" transform="translate(-78.27 -23.45)"/><path class="cls-2" d="M258.33,768.55c11.92-22.9,19.14-58.34,20.08-62.11s-17.88-8.78-17.88-8.78-18.28,4.28-17.88,7.21C243.32,709.81,258.33,768.55,258.33,768.55Z" transform="translate(-78.27 -23.45)"/><path class="cls-3" d="M352.43,59.08,243,191.42c-20.71,50.34-1.42,204.5-1.42,204.5,15.53-90.35,133.93-249.64,140-275.35C388.35,91.53,364.35,55.5,352.43,59.08Z" transform="translate(-78.27 -23.45)"/><path class="cls-4" d="M352.43,59.05S275,85.4,243,191.42c14.42-27.6,78.81-35.84,122.64,22.2l2.5-9.39C348,135,341.77,67,352.43,59.05Z" transform="translate(-78.27 -23.45)"/><path class="cls-1" d="M333.36,144.87c-6.08-26.84-8-52.17-6.37-72.39-25.52,16.85-63.83,52-84,118.94,12.84-24.58,65.29-33.76,107.58,5.49A270.47,270.47,0,0,1,333.36,144.87Z" transform="translate(-78.27 -23.45)"/><path class="cls-5" d="M136,443.6c-9.82-112.91,69.32-245.91,218.62-237.75l2.82-4.4S243.59,56.39,178.51,136.53C72.33,267.26,136,443.6,136,443.6Z" transform="translate(-78.27 -23.45)"/><path class="cls-1" d="M106.52,597.92c54-104.14,96.61-267.24,82.18-311.78s-31.37-124.86,5.64-164.38c0,0-114.82,64-116,216.45C77.07,489.79,120.17,497.23,106.52,597.92Z" transform="translate(-78.27 -23.45)"/><path class="cls-4" d="M187.13,355.78c5-31,6-55.93,1.57-69.64-14.43-44.54-31.37-124.86,5.64-164.38,0,0-3.33,1.86-8.86,5.69-17.12,26.17-28.14,67-28.14,112.93C157.34,287.77,169.07,329.76,187.13,355.78Z" transform="translate(-78.27 -23.45)"/><path class="cls-5" d="M439.75,235.5c17.63-16.56,44.13-27.73,53.84-20.56-7.63,11.63-38.14,59.93-60.31,55.25C414.56,266.24,432.12,242.67,439.75,235.5Z" transform="translate(-78.27 -23.45)"/><path class="cls-6" d="M486.39,245.33c-5.47-14.06-7.5-28.53-2.33-31.13s13.23-1.71,22.73,18.91c1.59,3.45,1.18,6.56-1,7.74C504.31,241.68,487.43,248,486.39,245.33Z" transform="translate(-78.27 -23.45)"/><path class="cls-5" d="M380.33,485c-.65,1.63.76,5,7.78,15.18l6.82-8.08S380.92,483.47,380.33,485Z" transform="translate(-78.27 -23.45)"/><path class="cls-5" d="M371.68,488c-.37,2.41,2.14,6.66,10.77,16.82l8-10.1S372,485.58,371.68,488Z" transform="translate(-78.27 -23.45)"/><path class="cls-3" d="M461.61,375.62c-5.31,32.24-40.79,61.65-50.52,65.78,0,0,13,17.88,16.15,32.15.71,3.22-11.25,16-14.66,32.86-1.7,8.38-25.48,6-30.42-2.48-1.19-2.06,6.61-6.82,10.25-13.81-4.06-6.3,7.06-16.3,7-19.7-9.72-4.24-21.64-16.94-20.46-21.8,1.73-7.17,13.17-14.75,13.35-56.48.16-37.2,20.23-46.87,30.68-49.26C437.13,339.63,465.44,352.32,461.61,375.62Z" transform="translate(-78.27 -23.45)"/><path class="cls-2" d="M311.19,517.46c-11.1-6.88-16.63-21.64-16.78-22.74s13,6.59,14.11,6.43-9.88-14.27-8.94-16.31,17.41,9.26,18,9.26-6.75-12.86-6.12-13.33,14.27,6.43,20.86,13.8S319,522.33,311.19,517.46Z" transform="translate(-78.27 -23.45)"/><path class="cls-6" d="M468.56,236.15c-13.17-41.41-33.64-74.84.24-115.31L451.23,85.4S324.61,174.1,315.42,345.74c-1.88,35.13-124.73,101-116.21,211.71,5.33,69.32,57.56,85.32,61.4,174.32l2.43.39c6-94.1-69.32-155.26-14.85-231.06,54.23-75.45,141.33-42.88,195.91-88.05S480.79,274.56,468.56,236.15Z" transform="translate(-78.27 -23.45)"/><path class="cls-5" d="M369.37,221.87l-22,87.67c19.76,6.28,58.34-38.42,65.87-54.42C413.28,255.12,366.55,242,369.37,221.87Z" transform="translate(-78.27 -23.45)"/><path class="cls-7" d="M474.6,282.84c.67,57.45-21.25,93.86-51.59,96.18-20.55,1.57-77.4,10.14-82.65-21.49C316.05,211.21,424,97.32,456.84,94.86l-6.55-13.22S323.67,170.33,314.48,342C312.6,377.1,189.75,443,198.27,553.69c5.33,69.32,58.5,86,62.34,175l1.49-.34c6-94.1-69.32-155.26-14.85-231.06,54.23-75.46,136.86-46.22,191.44-91.38C476.25,374.87,480.38,323.89,474.6,282.84Z" transform="translate(-78.27 -23.45)"/><path class="cls-7" d="M402.15,251.82c6.16-26.76,7.68-77.26-8.86-81.07s-41.84,38.64-48,65.4-27.92,100.79-11.37,104.6S396,278.58,402.15,251.82Z" transform="translate(-78.27 -23.45)"/><path class="cls-6" d="M415.83,367.4C433.72,332.12,453.38,262,431.57,251s-71.91,39.52-89.8,74.8-21.5,89.25.31,100.32S397.94,402.68,415.83,367.4Z" transform="translate(-78.27 -23.45)"/><path class="cls-3" d="M405.18,424.78c-17.66-10.06-24.5-40.9-45.06-40.9-76.82,0-165.16,98.88-151,195.72,6.95,47.62,48.13,78.68,51.32,152.63l1.61,6.16,1.41-5.57c6-94.09-70.65-159.68-16.18-235.48C291.25,436.12,353.94,443.82,405.18,424.78Z" transform="translate(-78.27 -23.45)"/><path class="cls-7" d="M450.29,81.64S435.46,92,415.58,112.58c-1.89,60.62,22.48,66.64,55.91,153A207.83,207.83,0,0,0,462.84,236c-14.43-37.64-28.86-78.42,5-118.88Z" transform="translate(-78.27 -23.45)"/><path class="cls-8" d="M448.15,186.5c-6.17-27.28-22.38-22.43-37.46-1.87,10.42,56.13-5.75,172.73-50.57,221.1a107.13,107.13,0,0,1-14.44,13c-6.58,7.81-5.92,15.65-2.34,21.29,30.22-6.36,71.21-11.55,95.35-31.52C518.56,342.4,450.92,195.21,448.15,186.5Z" transform="translate(-78.27 -23.45)"/><path class="cls-9" d="M466.42,364.86c12.86-35.53,8.95-77.95,1.61-112.27-8.37-17.93-19.52-28.84-31.85-28.84-6.63,0-13,3.16-18.77,8.87C416.34,268,409.83,310,397.76,345.75c9.85,22.11,24,35.94,39.77,35.94C448.08,381.69,458,375.53,466.42,364.86Z" transform="translate(-78.27 -23.45)"/><path class="cls-1" d="M398.54,366.12c-5.64,34.29-40.78,63.05-51.13,67.44,0,0,3.39,22.4,11,33.62,2,2.9-7.89,28.38-11.52,46.31-1.8,8.91-27.44,10.4-35.67,4-4.21-3.28,6.93-35.3,6.8-41.58-.41-20.13-17.85-34.13-13.55-42.95,3.24-6.63,18.82-9.72,20.39-49.24s21.51-49.84,32.62-52.38C372.51,327.86,402.62,341.34,398.54,366.12Z" transform="translate(-78.27 -23.45)"/><path class="cls-1" d="M373,278.54c-20.4-23.54-24.23-67.28.23-96,29.68-34.82,43.52,0,36,12.46s-22.58,30.82-10.58,49.17S379.09,285.59,373,278.54Z" transform="translate(-78.27 -23.45)"/><path class="cls-5" d="M385.21,260.34c-16.93-19.54-22.43-53-9.82-80.23-.72.79-1.44,1.58-2.18,2.45-24.46,28.7-20.63,72.44-.23,96,4.83,5.57,25.51-7.66,28.06-22.5C394.67,261,387.75,263.27,385.21,260.34Z" transform="translate(-78.27 -23.45)"/><path class="cls-5" d="M383.71,244.43C401,227.56,427,216.2,436.49,223.49c-7.47,11.84-37.39,61-59.12,56.25C359,275.71,376.23,251.72,383.71,244.43Z" transform="translate(-78.27 -23.45)"/><path class="cls-1" d="M376.83,253.2c17.52-15.46,42.86-25.31,52.77-18.92,3-4.59,5.41-8.44,6.89-10.79-9.51-7.29-35.49,4.07-52.78,20.94a64.1,64.1,0,0,0-7.86,9.67C376.19,253.78,376.52,253.47,376.83,253.2Z" transform="translate(-78.27 -23.45)"/><path class="cls-10" d="M447.94,248.68c-1.15,10.94-6.42,18.79-7.6,18.88s-2.7-14.38-2.7-14.38Z" transform="translate(-78.27 -23.45)"/><path class="cls-10" d="M439.17,247.4c-1.15,10.94-6.42,18.8-7.6,18.89s-2.7-14.39-2.7-14.39Z" transform="translate(-78.27 -23.45)"/><path class="cls-10" d="M430.77,246.44c-1.15,10.94-7,17.85-8.18,17.94s-2.13-13.44-2.13-13.44Z" transform="translate(-78.27 -23.45)"/><path class="cls-1" d="M419.93,252.11c-2.08-15.21.14-29.9,7.21-31.07s16.54,1.85,21.37,24.55c.81,3.8-.69,6.72-3.67,7.31C442.75,253.3,420.32,255,419.93,252.11Z" transform="translate(-78.27 -23.45)"/><path class="cls-11" d="M447.86,102.5c9.88,8,24.43,64,35.29,70.57,13.64,8.26,28.46,3.56,28.46,3.56l-35.75-72.49Z" transform="translate(-78.27 -23.45)"/><path class="cls-6" d="M487.15,40.16s-4.47,8.23-4.71,38.58L502,85.56C495.38,54,487.15,40.16,487.15,40.16Z" transform="translate(-78.27 -23.45)"/><path class="cls-7" d="M433.52,81.62c-10.24-5.57-12.38-10-12.89-12.92S444.74,77,444.74,77Z" transform="translate(-78.27 -23.45)"/><path class="cls-7" d="M446.67,78c-12-8.06-15.44-15.17-16.49-19.95-1.08-5,25.35,15.62,25.35,15.62Z" transform="translate(-78.27 -23.45)"/><path class="cls-7" d="M453.93,75.37c-11.34-11.79-15.34-23.55-16.47-31.73-1.27-9.13,23.37,27.91,23.37,27.91Z" transform="translate(-78.27 -23.45)"/><path class="cls-12" d="M479.31,149.07c-9.65,4.47-14.82,10.59-16.24,12.71,0,0,5.65,2.58,20-6.35Z" transform="translate(-78.27 -23.45)"/><path class="cls-12" d="M485.56,161.07c-7.91,3.66-12.16,8.68-13.32,10.42,0,0,4.63,2.12,16.4-5.21Z" transform="translate(-78.27 -23.45)"/><path class="cls-12" d="M471.23,123c-6.67,4.89-9.69,9.65-10.43,11.09,0,0,2,1.44,11.6-5.75Z" transform="translate(-78.27 -23.45)"/><path class="cls-12" d="M473.56,133.89c-8.67,6.36-12.6,12.56-13.56,14.43,0,0,2.64,1.87,15.09-7.48Z" transform="translate(-78.27 -23.45)"/><path class="cls-6" d="M458.45,23.45c-7.76,10.35-4.71,26.35-6.59,53.4l24-8.46C471.62,40.63,458.45,23.45,458.45,23.45Z" transform="translate(-78.27 -23.45)"/><path class="cls-1" d="M462.45,107.44c6.11,22.81,15.36,75.52,58.57,80.92,3.77.47,12.94-29.41,12.71-30.82s-26.12-48-26.12-48,.47-19.76-.47-22.58-16.93-9.88-16.93-9.88S477,63.31,469,63.68c-5.8.27-12.31,2.38-13.72,9.2-13.88.47-34.49,2.48-43.44,18.32C411.87,91.2,429.75,107.91,462.45,107.44Z" transform="translate(-78.27 -23.45)"/><path class="cls-13" d="M533,155.94c-2.06,10.5-9,20.3-21.68,13.55-16-8.46-27.21-27.13-27-45.48.21-16.77,7.8-20.53,23.55-14l-.27-.48s.47-19.76-.47-22.58c-.67-2-3.25-.36-3.37,16.11-5.41,1.49-11.6-4.47-11.6-4.47s-8.24-22.12-17.8-28.07c-1.81-1.13-15.37-10.9-19,1.88-7.13.24-16.07,1-24.28,3.85,16.05,3.56,24.52,9.79,31.34,31.17,6.11,22.81,15.21,70.53,58.42,75.93,3.76.47,13.09-24.42,12.86-25.83A16.79,16.79,0,0,0,533,155.94Z" transform="translate(-78.27 -23.45)"/><path class="cls-13" d="M505.63,166.37c8.9,6.75,7.88-30.44,6.31-32.77-.75-1.12-8.14-4.28-15.66-7.29-8.23-3.29-16.63-6.39-16.63-6.39S479.93,146.89,505.63,166.37Z" transform="translate(-78.27 -23.45)"/><path class="cls-14" d="M509.5,134.4c1.09,2.27-1.88,14.22-2.93,13s-7.54-13.18-6.87-14.21S508.64,132.63,509.5,134.4Z" transform="translate(-78.27 -23.45)"/><path class="cls-15" d="M509,134.82c.71,1.48-1.22,9.24-1.91,8.45s-4.89-8.57-4.46-9.23S508.4,133.67,509,134.82Z" transform="translate(-78.27 -23.45)"/><path class="cls-3" d="M486.52,105.82,470,92.39c3-5.94,7.74-4.89,10.42-2.85C484.88,92.92,486.58,101.79,486.52,105.82Z" transform="translate(-78.27 -23.45)"/><path class="cls-16" d="M480.49,98.69l-4.95-4c.91-1.78,2.8-2.65,3.6-2C480.48,93.64,480.51,97.48,480.49,98.69Z" transform="translate(-78.27 -23.45)"/><path class="cls-1" d="M520.71,171.38c-17.82,1.71-26.82-14.28-26.35-17.73s17.26,3.77,18.51-2.82S533.73,170.12,520.71,171.38Z" transform="translate(-78.27 -23.45)"/><path class="cls-5" d="M386.76,390.9c-17.68,29.63-41.23,40.84-52.6,25.06-7.81-10.86-9.79-34.88-4.51-58.45-2.6,6.86-4.39,15.43-4.82,26.18-1.57,39.52-17.15,42.61-20.39,49.24-4.3,8.82,13.14,22.82,13.55,42.95.05,2.4-1.55,8.56-3.3,15.43,11.91-19.87,28.82-31.59,41.34-28.2-5.93-11.81-8.62-29.55-8.62-29.55,10.35-4.39,45.49-33.15,51.13-67.44.1-.59.16-1.17.22-1.75A130.68,130.68,0,0,1,386.76,390.9Z" transform="translate(-78.27 -23.45)"/></svg>