<svg id="Layer_1" data-name="Layer 1" xmlns="http://www.w3.org/2000/svg" viewBox="0 0 612 209.37"><defs><style>.cls-1{fill:#f26742;}.cls-2{fill:#f89b54;}.cls-3{fill:#ffcc4d;}</style></defs><path class="cls-1" d="M253.28,641a28.82,28.82,0,0,0,1.94-3.76A20.69,20.69,0,0,0,253.28,641Z" transform="translate(0 -583.07)"/><path class="cls-1" d="M610.74,747.56c-1.69-5.54-16.85-22.84-13.67-26.39-7.32,7.72-17.06,3.35-25.9,5.1-9.42,1.86-13,14-21.78,16.46a21.94,21.94,0,0,0,.51-16.47c-2.41-6.07-6.87-8.26-6.61-15.29-4.34,3.8-8.66,7.56-12.9,11.54,1.59-14.25.14-27.41-7.62-40-5.78-9.34-14.56-16.66-10.16-28.24-8.47,6-18.59,8.73-27.71,14.08-9.86,5.79-13.61,21.64-25.31,23.55.7-2.26.36-4.71,1.19-6.77-13.19,13.29-18.22,29.66-37.85,36.25-7.52,2.52-13.82,4.28-19.73,8.61a59.54,59.54,0,0,0-12.34-16.6c-4.49-4.24-16.75-10-10.1-17.32-5.26,2.07-8,7.67-12,11.38-5.26,4.86-10.18,4.48-15.55,8.76-7.36,5.87-8.13,4.72-9.56-4.15-.41-2.59-.29-6.35-1-8.86-.66-2.24-3.1-5.42-3.53-6.58-4.43,12.67-17.11,15.33-27.76,19-11.23,3.86-13.83,18.55-24.74,21.19-.89-5.63,3.9-8.33,5.08-13.05,1-3.94.16-11.1-.42-15.23-1-7.07-8.89-21.84-2.6-27.83-6.87,5.74-9.4,15.45-16.33,20.89-6.38,5-13.24,6.32-18.34,13.24,1.78-6.12,6.67-12,8.32-18.08,1.51-5.51-.62-15.38-1.93-20.7-2.84-11.51-11.66-23.31-7.07-35-5.32,8.64-13.93,12.06-22.33,18-5.84,4.15-9.68,7.38-12.24,14.07-1.84,4.8-2.79,9-7.14,12.34-.22-4.14-5-8.83-3-12.76-6.15,10.24-12.89,17.23-24.13,22.27-10.21,4.58-24,8.92-29.23,19.49-5,10.1-4.26,32.81-21,30.63a55.12,55.12,0,0,0,.38-10.5c-6.61,7.54-21.51,8.61-24.11,19.27.41-9.6,2.82-15.94-2.2-25.35-4.08-7.66-8-12.26-8.4-21-3,15.27-23.54,16.86-35.31,21.53-7.09,2.82-11.37,7.08-15.34,13.73-2.94,4.93-2.69,11.36-8.94,12.94,1.12-5.63-.47-9.93-2.35-15.25,3,9.14-20.94,20.45-27.41,25.35C1.21,772.86,0,782.79,0,792.42H590.66C614.29,784.15,613.26,755.77,610.74,747.56Z" transform="translate(0 -583.07)"/><path class="cls-1" d="M272.3,662.47l-.23-.22C272.08,662.44,272.15,662.53,272.3,662.47Z" transform="translate(0 -583.07)"/><path class="cls-1" d="M287.06,618.94c-.72,15.59-27.33,22.16-17.13,41.17l2.14,2.14a9.69,9.69,0,0,1,1.56-3.78,26.76,26.76,0,0,1,3.83-4.41c2.51-2.51,5.94-4.37,8-7.37C290.84,638.69,287.06,627.94,287.06,618.94Z" transform="translate(0 -583.07)"/><path class="cls-1" d="M310.1,673.11c.16-4.07,1.89-9.94,1.31-13-1.58,13.57-23.59,20.21-16.67,35.39l.59,14.18c.78-8.7,10.31-13.54,13.75-21.83C311,683.35,309.9,678,310.1,673.11Z" transform="translate(0 -583.07)"/><path class="cls-1" d="M217.36,627.54c-1.27,3.25-4.75,8.18-7.25,11.87s-3.9,10.54-7.41,13c.16-1.63-.41-3.59-.22-5.21-1.79,2.37-1.92,5.33-4.45,7.76s-6.72,3.67-9.61,5.63c-5.37,3.64-12.53,10.24-8.94,17.3,4.61-8,21-12,27.22-16.14C219.26,653.42,217.72,640.73,217.36,627.54Z" transform="translate(0 -583.07)"/><path class="cls-1" d="M546.39,620.15c-3.79,7.85-5.16,13.07-12.46,19.43-5,4.37-16.59,14.72-12.46,22.75,1.46,2.82,4.5,11.87,4.5,11.87,1.75-10.66,10.17-16.48,16.85-24.59S546.23,630,546.39,620.15Z" transform="translate(0 -583.07)"/><path class="cls-1" d="M512.43,619.19a19.81,19.81,0,0,0,.75-4.22A11.28,11.28,0,0,0,512.43,619.19Z" transform="translate(0 -583.07)"/><path class="cls-1" d="M512.43,619.19c-1.87,6.46-6.86,11.31-12.15,15.66-5,4.1-10.33,9.09-10.16,15.84l-1.33,11.52c0,.54,0,1.09,0,1.64,4.33-9.28,11.05-14.28,17.86-21.9a24.62,24.62,0,0,0,6-13C513,626,512.37,622.43,512.43,619.19Z" transform="translate(0 -583.07)"/><path class="cls-1" d="M526,615c-.78,3.91,2.21,14.46,2.21,14.46,2.72-4.44,5.28-6.92,6.66-12a54.06,54.06,0,0,1,4.31-11.63,30.34,30.34,0,0,0,4-11c.37-2.5.5-5.43,1.06-8.08C539.68,595.62,528.66,601.52,526,615Z" transform="translate(0 -583.07)"/><path class="cls-1" d="M544.24,586.8a12,12,0,0,0,1.27-3.73A14.27,14.27,0,0,0,544.24,586.8Z" transform="translate(0 -583.07)"/><path class="cls-1" d="M116.69,683.16c-1.16,7.89-6.62,11.52-10.74,17.56-3.35,4.92-5,12.67.55,16l5.76,11.52c.81.8,2.21-8,2.22-10.3,0-4.35-2.39-7.75-2.67-11.85C111.27,698.43,116.7,691.26,116.69,683.16Z" transform="translate(0 -583.07)"/><path class="cls-1" d="M361.66,672.53c-1.82,7-8.72,9-13.18,14.13-5.29,6-.73,11.46-1.44,18.07v8.42a15,15,0,0,0,0,1.64c1.34-8.29,9.79-11.67,13-18.82,1.75-3.92.12-8-.12-12.06S360.77,676.33,361.66,672.53Z" transform="translate(0 -583.07)"/><path class="cls-2" d="M265.14,722.63c-.15.14-.28.28-.41.42Z" transform="translate(0 -583.07)"/><path class="cls-2" d="M324.33,731.21c0-.21.08-.43.11-.65C324.4,730.78,324.36,731,324.33,731.21Z" transform="translate(0 -583.07)"/><path class="cls-2" d="M347.54,738.88q.39-.42.75-.87A5.09,5.09,0,0,0,347.54,738.88Z" transform="translate(0 -583.07)"/><path class="cls-2" d="M581.88,757.45s-13.9,13-21.26,11.89c0-3.29,1.65-5.72,1.27-9.24s-3.9-6.9-1-10.13c-7.16,6.11-13.65,9.94-23,12.25-8.53,2.11-12.1,4.26-17.28,11.46.21-6.75,5.67-13,5.78-20.22.11-6.86-4.91-11.91-5.4-18.12a49.94,49.94,0,0,1-10,6.55,45.17,45.17,0,0,1,1.61-7.32c-3,4.6-8.1,3.85-12.42,5.51-7.43,2.84-9.49,10.77-14.91,15.9.67-4,4.45-8.41,6.47-12a79.86,79.86,0,0,0,6.22-14.4,56.58,56.58,0,0,0,2.76-17.63c0-5.16-.49-8.77-2.76-13.39-.95-1.94-2.46-4.72-2.33-7.13-4.88,7.36-17.43,11.75-24.59,14.56-8.88,3.49-12.86,5.93-17.6,13.8-.79-2.3-1.8-6-2.33-7.56-2.11,18.11-24.5,23-39,27.85-11,3.64-18.44,8.43-25.63,17.36-.84-4.8-.92-9.34-2.4-14.14s-4.62-8.56-4.43-13.6c-2.23,5.19-7.09,8.77-10,13.6-2,3.42-3.38,12.76-6.68,14.12-.1-1.82-.08-3.7-.05-5.54-2.89,4.45-3.53,9.18-7,13.57a50.7,50.7,0,0,1-6.89,7.06c-.64-2.59-1.37-5.18-1.95-8-1.07-5-.34-9.51-.13-14.15.17-3.56-1.51-8.47.53-11.5-2.66,2.86-6.6,4.87-8.81,8.37-2.06,3.27-3,7-5.24,10.15,2-6,2.47-8.86-2.4-14-4.06-4.31-7.63-6.23-6.76-12.16-.87,4.45-4,6.41-7.84,8.52-5.09,2.82-8.32,7.25-13,10.51-4,2.8-8.44,2.71-12.22,5.88-3.45,2.88-5.7,7.29-8.42,10.93-.3-4.53,1.38-8.45.9-12.7-.55-4.89-3.61-9.55-6.64-13.31-3.58-4.44-18.74-11.18-12.42-18-8.24,8.08-23.6,5.82-26.87,19-1.21-6.59-5-11.76-4.23-19.13.52-5.43,3.66-10.2,4.77-15.48,2.09-10-2.09-20.66-3.88-30-1.15,6.46-1,10.62-5.76,15.82S218.38,702,212.37,706c-4.53,3-10.43,7.19-12.29,12.51-1.94,5.53.53,11.46-3.12,16.7-.42-4.71,1.06-8.5-1-13.6-1.68-4.2-5.68-7.14-3.95-11.8-3.7,5.66-11.21,7.81-14.21,13.55-3.57,6.83-2.16,15-7.19,21.27-6,7.45-15.54,8.37-22.07,14.62-6,5.76-5.21,12.64-8,19.81.49-6-7.85-13.25-12.38-16.15-5.09-3.24-10.93-3.35-7.05-10.56-4.52,5.39-9.93,7.73-15.09,12.2s-8.85,12-15,15c-.24-4.51-2.3-8.52-2.37-12.76A22.54,22.54,0,0,0,80.78,775c1.09-11.16-8.61-21.17-5.8-31.62-7,10.41-16.63,18.81-28.6,23.35-8.35,3.17-18,1.68-23.52,9.59.52-4.27,2.49-8.56,2.59-13-1.75,6.94-12.11,10.07-16.31,15.39-2,2.56-.12,13.28,4.34,13.69h557.7S595.55,784.47,581.88,757.45Z" transform="translate(0 -583.07)"/><path class="cls-2" d="M495.66,691.4a12.56,12.56,0,0,0,1.48-3A4,4,0,0,0,495.66,691.4Z" transform="translate(0 -583.07)"/><path class="cls-3" d="M313.39,758.12l.49-.25A1.74,1.74,0,0,0,313.39,758.12Z" transform="translate(0 -583.07)"/><path class="cls-3" d="M186.36,745.1c.12-.26.24-.51.35-.77A7.79,7.79,0,0,0,186.36,745.1Z" transform="translate(0 -583.07)"/><path class="cls-3" d="M474.83,726.78l1.42-.35A8,8,0,0,0,474.83,726.78Z" transform="translate(0 -583.07)"/><path class="cls-3" d="M418,752.6c.67,0,1.34,0,2,0A4.77,4.77,0,0,0,418,752.6Z" transform="translate(0 -583.07)"/><path class="cls-3" d="M566.78,776.93c-3,3.07-7.66,6.1-11.92,6.59,1.35-2.86,3.9-5.28-1.85-5.27-3.65,0-7.39,1.73-11.35,1.82,2-4,2.34-8.33,5.89-11.57-11-.38-19.5,9.42-30,11.11-1.92.31-3.8.57-5.66.83a6,6,0,0,1-.53-.49c-4.61-4.94,1.33-14.24,1.24-19.71-1.55,2.38-4.16,3.44-6.23,5.36-2.71,2.5-4.43,5.88-7.31,8.2a29.45,29.45,0,0,1-7.78,4.39c.93-2.86,2.15-5.72,2.46-7.35.87-4.55-.09-11.5,3.72-14.67-9,6.83-21.89,6.55-32.18,11a24.84,24.84,0,0,0-8.27,5.71c-.45-3.42,1-7.59,4.24-12,5.22-7.1,9-13.85,9.81-22.53.4-4.15-.87-10,3.74-11.62-6.07,1.62-11.48,4.77-17.21,7.73-9.66,5-20.39,9.45-28.09,17.3-3,3-5.75,6-10.75,4.31-2.69-.91-2.81-3-.8-3.52-5.45.11-10.62.76-15.58,3.4s-7.4,8.26-12.48,11.09c-4.15,2.32-8.75,2.82-11.1,7.12-2.69-1.49-1.21-4.45-1.76-7-.63-2.91-2.53-5.87-3.43-8.7-4,3.49-5,9.5-8.55,13.52-2.76-.34-2.28-3.09-1.73-5.22-5.23,2.22-5.81,8.7-9.55,12.27-3.26,3.1-10.87,5.24-15.17,3.65-6.74-2.5-6.5-15.65-3.6-20.77-1.86.27-2.66,1.62-4,3-3.58,3.59-7.1,7.18-11.66,9.81-5.22,3-8.95,5.45-14.75,6.55.47-4.3,5.45-8.57,6.69-13.13.72-2.69.11-8.61,2.12-10.06-6.65,3.35-12.69,8.45-18.95,12.28-6.52,4-13.36,3-17.83,10.35-2.17-3.3-8.17-7.07-8.87-10.08,1.23,4.16.55,6.65-1,10.64-7.68-5-5.59-12.18-5.22-19.88.34-7.11-1.75-12.45-4.89-18.44.77,8.48-4.52,17.5-12.34,20.59.43-1.07.35-2.29.78-3.43-4.48,2.56-6.62,2.63-11.87,3.4-6.87,1-10,4.69-13.78,10.16.08-5,1.17-8.92,1.79-13.6.76-5.69-1-12-2.76-17.28-2-6.17-5.21-19-.52-24.75-8.27,6.4-6.78,19.91-13.11,28.28-6.08,8-16.84,12.41-16.48,24.34-4.63-4.15-3.77-8-2.91-13.69.55-3.61-.45-8.44.91-11.91-4.37,9.25-12,11.4-21.17,16.23-9.42,4.93-15.81,8.16-20,17.83-1.49,3.4-1.41,4.42-5,5.31-2.34.58-5.73.56-8,.89-4.25.62-15.29,2.73-12.93-4.39a12.32,12.32,0,0,0-4.69,4.35c-2.76-4.83-1-11.05,2-15.49-7.57,1.26-11.9,8.56-18.44,11.88-5.16,2.62-12,2-17.21,4,.08-2.21.53-7,1.63-8.51-4.72,3.77-16.37,4.29-19,9.3.25-1.37,2.68-6.21.94-7.31s-5.55,3.18-6.61,3.89c-.51-3,.95-5.66.84-8.67-1.6,1.44-2.9,2.83-4.82,3.66a35.14,35.14,0,0,1,3-8.84c-6,3.72-9.44,7.19-16.77,8.56-7,1.32-9.73,4.08-14.55,8.39.24-1.11,0-2.42.3-3.48-4,1.8-4.71,7.49-.82,9.71l538.22,0c5.76-3.52,11.15-17.72,11-22.07C570.89,771,569.05,774.6,566.78,776.93Z" transform="translate(0 -583.07)"/><path class="cls-2" d="M289.29,648.77a11.7,11.7,0,0,0-.86,3.5A11.38,11.38,0,0,0,289.29,648.77Z" transform="translate(0 -583.07)"/><path class="cls-2" d="M288.36,659.85c.25-2.71-.16-5.1.07-7.58-2.8,6.54-11.51,9.17-15.77,13.41-3.51,3.49-5.14,12.81-4.13,20.14l.9,8c1.63-9.83,7.86-15.28,13.6-21.94A20.55,20.55,0,0,0,288.36,659.85Z" transform="translate(0 -583.07)"/><path class="cls-2" d="M170.15,660.59c-3.64,3.66-4.25,5.62-5.88,8.4-2.22,3.78-1.87,6.86-2.1,11.09-.36,6.61-.51,16-4.71,21.23,7.29-7.53,13.88-9.7,14.46-21.23.47-9.5.44-19.05,7.09-26.58Z" transform="translate(0 -583.07)"/><path class="cls-2" d="M434.73,680.8c-3,5.84-8.82,14.11-14.6,18.52-4.9,3.73-10.12,9.71-9.3,16.49l.44,5.31c-.17.29-.78.4-.34.61,3.79-6.33,9.86-10.72,15.29-15.67,3.33-3,5.74-6.55,6.33-11.07C432.94,692,434,683.57,434.73,680.8Z" transform="translate(0 -583.07)"/></svg>