<svg width="122" height="165" viewBox="0 0 122 165" fill="none" xmlns="http://www.w3.org/2000/svg">
<rect x="100" y="34" width="13" height="119" fill="url(#paint0_linear_64_8)"/>
<path d="M76 165L53.4833 72.75H98.5167L76 165Z" fill="#6F6F6F"/>
<path d="M82.5 111L75.1388 81.75H89.8612L82.5 111Z" fill="#255011"/>
<path d="M73.5 123L66.1388 93.75H80.8612L73.5 123Z" fill="#255011"/>
<path d="M92 114L66.0192 34.5L117.981 34.5L92 114Z" fill="#C9C9C9"/>
<path d="M45 132L14.6891 49.5L75.3109 49.5L45 132Z" fill="#AFAFAF"/>
<path d="M36.5 79L30.8708 57.25H42.1292L36.5 79Z" fill="#255011"/>
<path d="M43.5 92L36.1388 62.75H50.8612L43.5 92Z" fill="#255011"/>
<path d="M51.5 104L44.1388 74.75H58.8612L51.5 104Z" fill="#255011"/>
<path d="M65 135L30.359 33.75L99.641 33.75L65 135Z" fill="#EEEEEE"/>
<path d="M25 98L3.34937 34.25L46.6506 34.25L25 98Z" fill="#D9D9D9"/>
<path d="M25 98L3.34937 34.25L46.6506 34.25L25 98Z" fill="#D9D9D9"/>
<path d="M12.5 62L2.54071 34.25H22.4593L12.5 62Z" fill="#489325"/>
<path d="M20.5 56L14.0048 34.25H26.9952L20.5 56Z" fill="#489325"/>
<path d="M28.5 62L22.8708 33.5H34.1292L28.5 62Z" fill="#489325"/>
<path d="M38.5 55L32.8708 33.25H44.1292L38.5 55Z" fill="#489325"/>
<path d="M46.5 65L41.7369 32.75H51.2631L46.5 65Z" fill="#489325"/>
<path d="M56.5 53L50.0048 32.75H62.9952L56.5 53Z" fill="#489325"/>
<path d="M66 48L61.6699 33H70.3301L66 48Z" fill="#489325"/>
<path d="M75.5 52L69.8708 33.25H81.1292L75.5 52Z" fill="#489325"/>
<path d="M83 49L79.5359 33.25H86.4641L83 49Z" fill="#489325"/>
<path d="M90 45L85.6699 33.375H94.3301L90 45Z" fill="#489325"/>
<path d="M96.5 46L93.4689 33.25H99.5311L96.5 46Z" fill="#489325"/>
<path d="M100.5 45L98.3349 33.75H102.665L100.5 45Z" fill="#489325"/>
<path d="M105.5 46L101.603 34H109.397L105.5 46Z" fill="#489325"/>
<path d="M111.5 50L107.603 34.25H115.397L111.5 50Z" fill="#489325"/>
<path d="M116 43L113.402 34H118.598L116 43Z" fill="#489325"/>
<path d="M53.7284 75.8616L46.8754 58.7635L49.7641 57.6873L53.7284 75.8616Z" fill="url(#paint1_linear_64_8)"/>
<path d="M76.205 74.8644L89.4512 62.0642L91.5382 64.3329L76.205 74.8644Z" fill="url(#paint2_linear_64_8)"/>
<path d="M16.5 48.5L11.7369 34.25H21.2631L16.5 48.5Z" fill="#3D7D1F"/>
<path d="M9.5 44.6001L6.46891 34.1001H12.5311L9.5 44.6001Z" fill="#3D7D1F"/>
<path d="M57 42L53.5359 32.25H60.4641L57 42Z" fill="#3D7D1F"/>
<path d="M62 39.7998L59.4019 32.2998H64.5981L62 39.7998Z" fill="#3D7D1F"/>
<path d="M102 41L98.5359 33.5H105.464L102 41Z" fill="#3D7D1F"/>
<path d="M106 40L104.268 34H107.732L106 40Z" fill="#3D7D1F"/>
<ellipse cx="64.5" cy="74.5" rx="9.5" ry="10.5" fill="#454545"/>
<path d="M64.5 102L56.2728 78H72.7272L64.5 102Z" fill="#BEBEBE"/>
<path d="M72 97L65.9378 77.5H78.0622L72 97Z" fill="#BEBEBE"/>
<path d="M56.5 92L51.7369 77.75H61.2631L56.5 92Z" fill="#BEBEBE"/>
<path d="M53 83L51.2679 77.75H54.7321L53 83Z" fill="#3D7D1F"/>
<path d="M55.5 82L54.201 77.5H56.799L55.5 82Z" fill="#3D7D1F"/>
<path d="M57.5 84.5L56.201 77.75H58.799L57.5 84.5Z" fill="#3D7D1F"/>
<path d="M60.5 86L58.3349 77.75H62.6651L60.5 86Z" fill="#3D7D1F"/>
<path d="M64 85L62.2679 77.5H65.7321L64 85Z" fill="#3D7D1F"/>
<path d="M66.5 82L65.201 77.5H67.799L66.5 82Z" fill="#3D7D1F"/>
<path d="M69.5 83.3999L67.3349 77.3999H71.6651L69.5 83.3999Z" fill="#3D7D1F"/>
<path d="M73 82.5L70.4019 77.25H75.5981L73 82.5Z" fill="#3D7D1F"/>
<path d="M76.5 83L74.3349 77H78.6651L76.5 83Z" fill="#3D7D1F"/>
<rect x="75" y="75" width="3" height="2" fill="#D9D9D9"/>
<rect x="52" y="76" width="3" height="2" fill="#D9D9D9"/>
<rect x="10" y="34" width="7" height="74" fill="url(#paint3_linear_64_8)"/>
<defs>
<linearGradient id="paint0_linear_64_8" x1="106.5" y1="34" x2="106.5" y2="153" gradientUnits="userSpaceOnUse">
<stop stop-color="#13BBF0"/>
<stop offset="1" stop-color="white" stop-opacity="0.25"/>
</linearGradient>
<linearGradient id="paint1_linear_64_8" x1="53.7284" y1="75.8616" x2="45.1565" y2="52.8535" gradientUnits="userSpaceOnUse">
<stop stop-color="#FF0099"/>
<stop offset="1" stop-color="white" stop-opacity="0"/>
</linearGradient>
<linearGradient id="paint2_linear_64_8" x1="76.205" y1="74.8644" x2="94.2751" y2="58.2415" gradientUnits="userSpaceOnUse">
<stop stop-color="#FFE600"/>
<stop offset="1" stop-color="white" stop-opacity="0"/>
</linearGradient>
<linearGradient id="paint3_linear_64_8" x1="13.5" y1="34" x2="13.5" y2="108" gradientUnits="userSpaceOnUse">
<stop stop-color="#13BBF0"/>
<stop offset="1" stop-color="white" stop-opacity="0.25"/>
</linearGradient>
</defs>
</svg>
